<svg width="210" height="42" viewBox="0 0 210 42" fill="none" xmlns="http://www.w3.org/2000/svg">
<path d="M51.7183 32.0185C51.4991 32.0185 51.2905 31.9918 51.0926 31.933C50.8894 31.8742 50.7128 31.7779 50.5632 31.6442C50.4132 31.5105 50.3064 31.334 50.2422 31.1148H50.5737C50.6433 31.2699 50.7342 31.3983 50.8573 31.4891C50.9802 31.58 51.114 31.6496 51.2691 31.6869C51.4187 31.7298 51.5685 31.7512 51.7182 31.7512C51.8841 31.7512 52.0444 31.7244 52.1995 31.671C52.3546 31.6228 52.4776 31.5426 52.5738 31.4356C52.6702 31.3286 52.7183 31.1896 52.7183 31.0132C52.7183 30.8741 52.6916 30.7619 52.6381 30.6763C52.5792 30.5908 52.5044 30.5211 52.4136 30.4677C52.3173 30.4195 52.205 30.3768 52.0819 30.3393C51.991 30.3126 51.8947 30.286 51.7985 30.2592C51.7023 30.2377 51.6113 30.2164 51.5205 30.1896C51.4295 30.1629 51.3386 30.1361 51.2583 30.1094C51.1461 30.0774 51.0392 30.0399 50.9322 29.9918C50.8198 29.9436 50.7236 29.8847 50.6434 29.8153C50.5579 29.7458 50.4883 29.6548 50.4402 29.5532C50.3867 29.4516 50.3602 29.3232 50.3602 29.1735C50.3602 29.0183 50.3816 28.8848 50.4297 28.7724C50.4778 28.6601 50.5419 28.5638 50.6275 28.4837C50.7131 28.4036 50.8094 28.3392 50.9216 28.2911C51.034 28.243 51.1516 28.211 51.2799 28.1842C51.4029 28.1628 51.5312 28.1519 51.665 28.1519C51.8682 28.1519 52.0608 28.1788 52.2373 28.2376C52.4137 28.2965 52.5635 28.3874 52.6864 28.5156C52.8094 28.644 52.8896 28.815 52.9218 29.0345H52.6116C52.5741 28.8793 52.51 28.7616 52.4137 28.6708C52.3121 28.58 52.1998 28.5156 52.066 28.4783C51.9324 28.4408 51.7987 28.4194 51.6596 28.4194C51.5474 28.4194 51.435 28.4301 51.3228 28.4515C51.2104 28.4783 51.1034 28.5156 51.0071 28.5692C50.9109 28.6227 50.8307 28.6922 50.7718 28.7832C50.713 28.874 50.681 28.9916 50.681 29.1307C50.681 29.2696 50.7131 29.382 50.7718 29.4729C50.8307 29.5639 50.9056 29.6334 51.0018 29.6869C51.0928 29.7404 51.1996 29.7885 51.3174 29.8259C51.4726 29.8741 51.6383 29.9168 51.8041 29.9543C51.9698 29.9917 52.1303 30.0398 52.28 30.0879C52.387 30.1201 52.4886 30.1628 52.5794 30.2109C52.6704 30.2644 52.7505 30.3287 52.8201 30.3981C52.8896 30.4677 52.9431 30.5478 52.9804 30.6388C53.018 30.7296 53.0394 30.8367 53.0394 30.9489C53.0394 31.1468 53.002 31.3126 52.9323 31.4463C52.8575 31.58 52.7559 31.6923 52.6329 31.7779C52.5099 31.8634 52.3655 31.9223 52.2105 31.9598C52.0553 32.0025 51.8895 32.0185 51.7184 32.0185H51.7183ZM53.8575 31.9758V28.1948H54.1624V31.9758H53.8575ZM55.1357 31.9758V28.1948H55.5528L57.8311 31.5908V28.1948H58.1359V31.9758H57.7349L55.4407 28.5799V31.9758H55.1357H55.1357ZM60.628 32.0185C60.2431 32.0185 59.9222 31.933 59.6708 31.7672C59.4141 31.6015 59.2216 31.3769 59.0986 31.0881C58.9703 30.8046 58.9061 30.4837 58.9008 30.1254C58.8954 29.8473 58.9329 29.5906 59.0023 29.3499C59.0718 29.1146 59.1735 28.906 59.318 28.7241C59.4623 28.5478 59.6388 28.4033 59.8581 28.3018C60.072 28.2001 60.3234 28.1519 60.6122 28.1519C60.8474 28.1519 61.0613 28.1841 61.2592 28.2483C61.4518 28.3178 61.6175 28.414 61.7619 28.5478C61.901 28.6814 62.008 28.8472 62.0829 29.0558H61.7353C61.6764 28.9167 61.5908 28.7991 61.4786 28.7028C61.3662 28.6119 61.2325 28.5369 61.0827 28.4888C60.933 28.4407 60.7779 28.4193 60.6176 28.4193C60.3714 28.4193 60.1577 28.462 59.9812 28.5531C59.8045 28.6439 59.6602 28.7668 59.548 28.922C59.4356 29.0772 59.35 29.259 59.3018 29.4568C59.2484 29.6599 59.2217 29.8741 59.2217 30.104C59.2217 30.4034 59.27 30.6761 59.3715 30.9275C59.4677 31.1788 59.6228 31.3768 59.8313 31.5265C60.0399 31.6762 60.302 31.7511 60.6281 31.7511C60.9008 31.7511 61.1362 31.6976 61.3289 31.5853C61.5159 31.4784 61.6657 31.3233 61.7672 31.1253C61.8689 30.9275 61.9224 30.6922 61.9277 30.4248H60.6281V30.1521H62.2112V30.3981C62.2112 30.7189 62.147 31.0023 62.0185 31.243C61.8902 31.489 61.7085 31.6816 61.4731 31.8152C61.2325 31.9489 60.9544 32.0184 60.6281 32.0184L60.628 32.0185ZM62.9759 31.9758V28.1948H63.2808V31.6977H65.4468V31.9757H62.9759V31.9758ZM66.0242 31.9758V28.1948H68.495V28.4728H66.329V29.9595H68.2756V30.2376H66.329V31.6976H68.495V31.9757H66.0242V31.9758ZM70.7037 31.9758V28.1948H71.0086V31.9758H70.7037ZM71.9818 31.9758V28.1948H72.399L74.6773 31.5908V28.1948H74.9821V31.9758H74.5811L72.2868 28.5799V31.9758H71.9819H71.9818ZM76.8324 31.9758V28.4729H75.5651V28.1949H78.4048V28.4729H77.1374V31.9758H76.8325H76.8324ZM78.9878 31.9758V28.1948H81.4586V28.4728H79.2926V29.9595H81.2392V30.2376H79.2926V31.6976H81.4586V31.9757H78.9878V31.9758ZM83.7421 32.0185C83.357 32.0185 83.0362 31.933 82.7849 31.7672C82.5282 31.6015 82.3356 31.3769 82.2126 31.0881C82.0842 30.8046 82.0201 30.4837 82.0147 30.1254C82.0094 29.8473 82.047 29.5906 82.1164 29.3499C82.1859 29.1146 82.2874 28.906 82.432 28.7241C82.5764 28.5478 82.7529 28.4033 82.972 28.3018C83.186 28.2001 83.4374 28.1519 83.7262 28.1519C83.9614 28.1519 84.1754 28.1841 84.3732 28.2483C84.5659 28.3178 84.7316 28.414 84.8759 28.5478C85.015 28.6814 85.1221 28.8472 85.1969 29.0558H84.8494C84.7905 28.9167 84.7048 28.7991 84.5926 28.7028C84.4803 28.6119 84.3465 28.5369 84.1968 28.4888C84.0471 28.4407 83.8919 28.4193 83.7315 28.4193C83.4855 28.4193 83.2716 28.462 83.0952 28.5531C82.9186 28.6439 82.7742 28.7668 82.662 28.922C82.5497 29.0772 82.464 29.259 82.4159 29.4568C82.3625 29.6599 82.3357 29.8741 82.3357 30.104C82.3357 30.4034 82.3839 30.6761 82.4856 30.9275C82.5818 31.1788 82.7369 31.3768 82.9453 31.5265C83.1539 31.6762 83.416 31.7511 83.7422 31.7511C84.0149 31.7511 84.2502 31.6976 84.4429 31.5853C84.63 31.4784 84.7797 31.3233 84.8813 31.1253C84.9829 30.9275 85.0364 30.6922 85.0418 30.4248H83.7422V30.1521H85.3252V30.3981C85.3252 30.7189 85.261 31.0023 85.1326 31.243C85.0043 31.489 84.8225 31.6816 84.5872 31.8152C84.3465 31.9489 84.0684 32.0184 83.7422 32.0184L83.7421 32.0185ZM86.0899 31.9758V28.1948H87.4803C87.6782 28.1948 87.8601 28.2162 88.0259 28.2536C88.1862 28.2964 88.3253 28.3605 88.4429 28.4515C88.5553 28.5423 88.6461 28.6601 88.7105 28.8046C88.7692 28.9542 88.8013 29.1361 88.8013 29.3447C88.8013 29.5426 88.7639 29.7137 88.6943 29.8581C88.6247 30.0026 88.5179 30.1256 88.3843 30.2218C88.2505 30.318 88.09 30.3876 87.9029 30.4304L88.7265 31.9759H88.3895L87.5874 30.4838H86.3948V31.9759H86.0899V31.9758ZM86.3948 30.2109H87.3307C87.4804 30.2109 87.6248 30.2003 87.7639 30.1736C87.903 30.1522 88.026 30.1093 88.1382 30.0452C88.2452 29.981 88.3308 29.89 88.3949 29.7725C88.4538 29.6601 88.4859 29.5105 88.4859 29.3286C88.4911 29.1093 88.4484 28.9328 88.3575 28.8099C88.2666 28.6868 88.1382 28.596 87.9831 28.5478C87.8228 28.4996 87.6356 28.4729 87.427 28.4729H86.3949V30.211L86.3948 30.2109ZM89.181 31.9758L90.6411 28.1948H91.0314L92.5021 31.9758H92.1599L91.8283 31.1254H89.8442L89.5181 31.9758H89.1811H89.181ZM89.9458 30.8527H91.7267L90.8389 28.5103L89.9458 30.8527Z" fill="white"/>
<path d="M93.6716 31.9758V28.4728H92.4043V28.1948H95.244V28.4728H93.9766V31.9758H93.6716Z" fill="white"/>
<path d="M97.319 32.0187C96.9286 32.0187 96.6024 31.9332 96.3404 31.7674C96.0782 31.6017 95.8804 31.3717 95.7467 31.0775C95.6131 30.7888 95.5488 30.4572 95.5488 30.0881C95.5488 29.7192 95.6183 29.3875 95.752 29.0934C95.8858 28.7993 96.0836 28.5694 96.3457 28.4036C96.6077 28.2378 96.9286 28.1521 97.319 28.1521C97.7095 28.1521 98.0356 28.2378 98.2976 28.4036C98.5598 28.5747 98.7522 28.8047 98.886 29.0934C99.0196 29.3876 99.0839 29.7192 99.0839 30.0881C99.0839 30.4572 99.0196 30.7834 98.886 31.0775C98.7522 31.3717 98.5544 31.6016 98.2923 31.7674C98.0303 31.9332 97.7095 32.0187 97.319 32.0187ZM97.319 31.7513C97.6453 31.7513 97.918 31.6765 98.1318 31.5267C98.3458 31.3771 98.5063 31.1738 98.6079 30.9223C98.7094 30.671 98.7631 30.3929 98.7631 30.0881C98.7631 29.8581 98.7363 29.6443 98.6774 29.4411C98.6185 29.2433 98.5277 29.0666 98.4099 28.9116C98.2922 28.7565 98.1426 28.6388 97.9608 28.548C97.7789 28.4624 97.565 28.4197 97.319 28.4197C96.9927 28.4197 96.72 28.4945 96.506 28.6497C96.2868 28.8048 96.1263 29.0027 96.0247 29.254C95.9178 29.5053 95.8644 29.7834 95.8644 30.0882C95.8644 30.3878 95.9178 30.6659 96.0247 30.9172C96.1318 31.1685 96.2922 31.3718 96.5113 31.5215C96.7253 31.6767 96.9927 31.7515 97.3189 31.7515L97.319 31.7513ZM99.8487 31.9759V28.1949H101.239C101.437 28.1949 101.619 28.2163 101.785 28.2537C101.945 28.2965 102.084 28.3606 102.202 28.4516C102.314 28.5424 102.405 28.6601 102.469 28.8047C102.528 28.9543 102.56 29.1362 102.56 29.3448C102.56 29.5427 102.523 29.7138 102.453 29.8582C102.383 30.0027 102.277 30.1257 102.143 30.2218C102.009 30.3181 101.849 30.3877 101.662 30.4305L102.485 31.976H102.148L101.346 30.4839H100.154V31.976H99.8487V31.9759ZM100.154 30.211H101.089C101.239 30.211 101.384 30.2004 101.523 30.1736C101.662 30.1523 101.785 30.1094 101.897 30.0453C102.004 29.9811 102.09 29.8901 102.154 29.7726C102.213 29.6602 102.245 29.5105 102.245 29.3287C102.25 29.1094 102.207 28.9329 102.116 28.81C102.025 28.6869 101.897 28.5961 101.742 28.5479C101.582 28.4997 101.394 28.473 101.186 28.473H100.154V30.2111L100.154 30.211ZM104.796 31.9759V28.1949H107.266V28.4729H105.1V30.0933H106.967V30.3714H105.1V31.9758H104.796V31.9759ZM109.534 32.0186C109.143 32.0186 108.817 31.9331 108.555 31.7673C108.293 31.6016 108.095 31.3716 107.961 31.0774C107.828 30.7887 107.764 30.4571 107.764 30.088C107.764 29.7191 107.833 29.3874 107.967 29.0933C108.101 28.7992 108.298 28.5693 108.56 28.4035C108.822 28.2377 109.143 28.152 109.534 28.152C109.924 28.152 110.25 28.2377 110.512 28.4035C110.775 28.5747 110.967 28.8046 111.101 29.0933C111.234 29.3875 111.299 29.7192 111.299 30.088C111.299 30.4571 111.234 30.7833 111.101 31.0774C110.967 31.3716 110.769 31.6015 110.507 31.7673C110.245 31.9331 109.924 32.0186 109.534 32.0186ZM109.534 31.7512C109.86 31.7512 110.133 31.6764 110.347 31.5267C110.561 31.377 110.721 31.1737 110.823 30.9222C110.924 30.6709 110.978 30.3928 110.978 30.088C110.978 29.858 110.951 29.6442 110.892 29.441C110.833 29.2432 110.742 29.0665 110.625 28.9115C110.507 28.7565 110.357 28.6387 110.176 28.5479C109.994 28.4623 109.78 28.4196 109.534 28.4196C109.208 28.4196 108.935 28.4944 108.721 28.6496C108.502 28.8047 108.341 29.0026 108.239 29.2539C108.133 29.5052 108.079 29.7833 108.079 30.0881C108.079 30.3877 108.133 30.6658 108.239 30.9171C108.347 31.1684 108.507 31.3717 108.726 31.5214C108.94 31.6766 109.207 31.7514 109.534 31.7514L109.534 31.7512ZM112.063 31.9758V28.1948H113.454C113.652 28.1948 113.834 28.2162 113.999 28.2536C114.16 28.2964 114.299 28.3605 114.416 28.4515C114.529 28.5423 114.62 28.6601 114.684 28.8046C114.743 28.9542 114.775 29.1361 114.775 29.3447C114.775 29.5426 114.737 29.7137 114.668 29.8581C114.598 30.0026 114.491 30.1256 114.358 30.2218C114.224 30.318 114.064 30.3876 113.876 30.4304L114.7 31.9759H114.363L113.561 30.4838H112.368V31.9759H112.063V31.9758ZM112.368 30.2109H113.304C113.454 30.2109 113.598 30.2003 113.737 30.1736C113.876 30.1522 113.999 30.1093 114.112 30.0452C114.219 29.981 114.304 29.89 114.368 29.7725C114.427 29.6601 114.459 29.5105 114.459 29.3286C114.465 29.1093 114.422 28.9328 114.331 28.8099C114.24 28.6868 114.112 28.596 113.957 28.5478C113.796 28.4996 113.609 28.4729 113.4 28.4729H112.368V30.211L112.368 30.2109ZM117.887 31.9758V28.4729H116.62V28.1949H119.46V28.4729H118.192V31.9758H117.887H117.887ZM120.043 31.9758V28.1948H120.347V29.9863H122.647V28.1948H122.952V31.9758H122.647V30.2591H120.347V31.9758H120.043ZM123.925 31.9758V28.1948H126.396V28.4728H124.23V29.9595H126.177V30.2376H124.23V31.6976H126.396V31.9757H123.925V31.9758ZM130.123 32.0185C129.733 32.0185 129.407 31.933 129.156 31.7672C128.899 31.6015 128.706 31.3715 128.583 31.0773C128.46 30.7886 128.396 30.457 128.396 30.0879C128.396 29.719 128.46 29.3928 128.589 29.0986C128.712 28.8099 128.904 28.5799 129.166 28.4087C129.423 28.2375 129.749 28.1519 130.14 28.1519C130.37 28.1519 130.578 28.1841 130.771 28.2535C130.958 28.3232 131.124 28.4193 131.257 28.5531C131.391 28.6867 131.487 28.8525 131.552 29.0558H131.236C131.15 28.8472 131.011 28.6867 130.819 28.5799C130.621 28.4728 130.396 28.4194 130.145 28.4194C129.813 28.4194 129.541 28.4942 129.332 28.6494C129.118 28.8046 128.963 29.0024 128.862 29.2537C128.76 29.505 128.706 29.7777 128.706 30.0774C128.706 30.3768 128.754 30.655 128.856 30.9063C128.958 31.163 129.113 31.3662 129.327 31.5213C129.535 31.6765 129.808 31.7513 130.134 31.7513C130.3 31.7513 130.455 31.7299 130.61 31.6818C130.765 31.6335 130.899 31.564 131.017 31.4679C131.134 31.3716 131.22 31.2539 131.273 31.1149H131.621C131.551 31.3127 131.439 31.4785 131.295 31.6121C131.145 31.7459 130.969 31.8475 130.771 31.9171C130.573 31.9867 130.353 32.0186 130.124 32.0186L130.123 32.0185ZM132.354 31.9758V28.1948H133.744C133.942 28.1948 134.124 28.2162 134.289 28.2536C134.45 28.2964 134.589 28.3605 134.707 28.4515C134.819 28.5423 134.91 28.6601 134.974 28.8046C135.033 28.9542 135.065 29.1361 135.065 29.3447C135.065 29.5426 135.028 29.7137 134.958 29.8581C134.888 30.0026 134.781 30.1256 134.648 30.2218C134.514 30.318 134.354 30.3876 134.167 30.4304L134.99 31.9759H134.653L133.851 30.4838H132.658V31.9759H132.354V31.9758ZM132.658 30.2109H133.594C133.744 30.2109 133.888 30.2003 134.028 30.1736C134.167 30.1522 134.29 30.1093 134.402 30.0452C134.509 29.981 134.594 29.89 134.659 29.7725C134.717 29.6601 134.749 29.5105 134.749 29.3286C134.755 29.1093 134.712 28.9328 134.621 28.8099C134.53 28.6868 134.402 28.596 134.247 28.5478C134.086 28.4996 133.899 28.4729 133.691 28.4729H132.659V30.211L132.658 30.2109ZM135.857 31.9758V28.1948H138.327V28.4728H136.161V29.9595H138.108V30.2376H136.161V31.6976H138.327V31.9757H135.857V31.9758ZM138.68 31.9758L140.14 28.1948H140.531L142.001 31.9758H141.659L141.328 31.1254H139.343L139.017 31.9758H138.68H138.68ZM139.445 30.8527H141.226L140.338 28.5103L139.445 30.8527Z" fill="white"/>
<path d="M143.171 31.9757V28.4728H141.903V28.1948H144.743V28.4728H143.476V31.9757H143.171H143.171ZM145.326 31.9757V28.1947H145.631V31.9757H145.326ZM148.166 32.0184C147.775 32.0184 147.449 31.933 147.187 31.7671C146.925 31.6014 146.727 31.3714 146.594 31.0772C146.46 30.7886 146.396 30.4569 146.396 30.0878C146.396 29.7189 146.465 29.3873 146.599 29.0932C146.733 28.7991 146.93 28.5692 147.193 28.4033C147.454 28.2375 147.775 28.1519 148.166 28.1519C148.556 28.1519 148.882 28.2375 149.145 28.4033C149.407 28.5745 149.599 28.8044 149.733 29.0932C149.866 29.3873 149.931 29.719 149.931 30.0878C149.931 30.4569 149.866 30.7831 149.733 31.0772C149.599 31.3714 149.401 31.6013 149.139 31.7671C148.877 31.933 148.556 32.0184 148.166 32.0184ZM148.166 31.7511C148.492 31.7511 148.765 31.6762 148.979 31.5265C149.193 31.3768 149.353 31.1735 149.455 30.9221C149.556 30.6708 149.61 30.3926 149.61 30.0878C149.61 29.8578 149.583 29.6441 149.524 29.4409C149.465 29.243 149.375 29.0664 149.257 28.9114C149.139 28.7563 148.989 28.6386 148.808 28.5478C148.626 28.4621 148.412 28.4194 148.166 28.4194C147.84 28.4194 147.567 28.4942 147.353 28.6494C147.134 28.8046 146.973 29.0024 146.872 29.2537C146.765 29.505 146.711 29.7832 146.711 30.0879C146.711 30.3875 146.765 30.6656 146.872 30.9169C146.979 31.1682 147.139 31.3715 147.358 31.5212C147.572 31.6764 147.84 31.7512 148.166 31.7512L148.166 31.7511ZM150.696 31.9757V28.1946H151.113L153.391 31.5906V28.1946H153.696V31.9757H153.295L151.001 28.5797V31.9757H150.696H150.696ZM155.701 31.9757L157.161 28.1946H157.552L159.022 31.9757H158.68L158.349 31.1253H156.364L156.038 31.9757H155.701H155.701ZM156.466 30.8526H158.247L157.359 28.5101L156.466 30.8526ZM159.584 31.9757V28.1946H160.001L162.279 31.5906V28.1946H162.584V31.9757H162.183L159.889 28.5797V31.9757H159.584H159.584ZM163.557 31.9757V28.1946H164.873C165.264 28.1946 165.59 28.2748 165.852 28.43C166.114 28.5904 166.306 28.8097 166.44 29.0931C166.574 29.3765 166.638 29.7081 166.638 30.0877C166.638 30.4622 166.574 30.7885 166.44 31.0719C166.306 31.3553 166.114 31.5746 165.852 31.735C165.59 31.8955 165.263 31.9757 164.873 31.9757H163.557ZM163.862 31.6976H164.83C165.167 31.6976 165.445 31.6281 165.664 31.4944C165.884 31.3607 166.044 31.1682 166.157 30.9275C166.269 30.6869 166.322 30.4035 166.322 30.0878C166.322 29.7777 166.269 29.4995 166.162 29.2537C166.055 29.0131 165.894 28.8205 165.68 28.6814C165.467 28.5423 165.194 28.4728 164.868 28.4728H163.862V31.6977L163.862 31.6976ZM170.167 32.0184C169.948 32.0184 169.74 31.9917 169.542 31.933C169.339 31.8741 169.162 31.7778 169.012 31.6441C168.862 31.5104 168.756 31.3339 168.691 31.1147H169.023C169.092 31.2699 169.183 31.3982 169.306 31.489C169.429 31.5799 169.563 31.6495 169.718 31.6868C169.868 31.7297 170.018 31.7511 170.167 31.7511C170.333 31.7511 170.494 31.7244 170.649 31.6709C170.804 31.6227 170.927 31.5426 171.023 31.4355C171.119 31.3285 171.168 31.1895 171.168 31.0131C171.168 30.874 171.141 30.7618 171.087 30.6762C171.028 30.5907 170.954 30.521 170.863 30.4676C170.766 30.4195 170.654 30.3768 170.531 30.3392C170.44 30.3125 170.344 30.2859 170.248 30.2591C170.151 30.2377 170.06 30.2163 169.97 30.1895C169.879 30.1628 169.788 30.136 169.708 30.1093C169.595 30.0773 169.488 30.0398 169.381 29.9917C169.269 29.9436 169.173 29.8846 169.093 29.8152C169.007 29.7457 168.937 29.6547 168.889 29.5532C168.836 29.4515 168.809 29.3232 168.809 29.1734C168.809 29.0182 168.831 28.8847 168.879 28.7723C168.927 28.6601 168.991 28.5637 169.077 28.4836C169.162 28.4035 169.259 28.3392 169.371 28.291C169.483 28.2429 169.601 28.2109 169.729 28.1841C169.852 28.1627 169.98 28.1519 170.114 28.1519C170.317 28.1519 170.51 28.1787 170.686 28.2375C170.863 28.2964 171.013 28.3873 171.136 28.5155C171.259 28.6439 171.339 28.815 171.371 29.0344H171.061C171.023 28.8792 170.959 28.7615 170.863 28.6707C170.761 28.5799 170.649 28.5155 170.515 28.4782C170.382 28.4407 170.248 28.4193 170.109 28.4193C169.997 28.4193 169.884 28.4301 169.772 28.4514C169.66 28.4782 169.553 28.5155 169.456 28.5692C169.36 28.6226 169.28 28.6921 169.221 28.7831C169.162 28.8739 169.13 28.9915 169.13 29.1306C169.13 29.2695 169.162 29.3819 169.221 29.4728C169.28 29.5638 169.355 29.6333 169.451 29.6868C169.542 29.7403 169.649 29.7884 169.767 29.8259C169.922 29.8741 170.087 29.9168 170.253 29.9542C170.419 29.9916 170.579 30.0397 170.729 30.0878C170.836 30.12 170.938 30.1627 171.029 30.2108C171.12 30.2643 171.2 30.3286 171.269 30.3981C171.339 30.4676 171.392 30.5477 171.43 30.6387C171.467 30.7295 171.489 30.8366 171.489 30.9488C171.489 31.1467 171.451 31.3125 171.382 31.4462C171.307 31.5799 171.205 31.6922 171.082 31.7778C170.959 31.8633 170.815 31.9222 170.66 31.9597C170.505 32.0024 170.339 32.0184 170.168 32.0184H170.167ZM173.745 32.0184C173.403 32.0184 173.125 31.9489 172.911 31.8046C172.692 31.6601 172.537 31.4677 172.435 31.2163C172.334 30.9704 172.28 30.6868 172.28 30.3658V28.1946H172.59V30.3499C172.59 30.6119 172.628 30.8471 172.708 31.0557C172.783 31.2697 172.906 31.4408 173.077 31.5638C173.248 31.6867 173.473 31.751 173.751 31.751C174.039 31.751 174.269 31.6867 174.435 31.5584C174.601 31.4353 174.724 31.2643 174.799 31.0503C174.868 30.8418 174.906 30.6065 174.906 30.3498V28.1946H175.216V30.3658C175.216 30.6867 175.168 30.9703 175.066 31.2162C174.965 31.4675 174.809 31.66 174.59 31.8045C174.371 31.9489 174.093 32.0184 173.745 32.0184L173.745 32.0184ZM176.162 31.9757V28.1947H177.435C177.708 28.1947 177.943 28.2374 178.141 28.3231C178.334 28.4139 178.484 28.5477 178.585 28.7295C178.687 28.9114 178.74 29.1413 178.74 29.4246C178.74 29.7026 178.681 29.9326 178.558 30.1145C178.435 30.3017 178.264 30.4408 178.056 30.5318C177.842 30.6226 177.601 30.6708 177.334 30.6708H176.467V31.9757H176.162V31.9757ZM176.467 30.3981H177.318C177.649 30.3981 177.917 30.3178 178.12 30.1575C178.323 30.0023 178.425 29.751 178.425 29.4033C178.425 29.0772 178.334 28.8365 178.157 28.692C177.981 28.5477 177.729 28.4728 177.409 28.4728H176.467V30.3981ZM179.51 31.9757V28.1947H180.783C181.056 28.1947 181.291 28.2374 181.489 28.3231C181.682 28.4139 181.831 28.5477 181.933 28.7295C182.035 28.9114 182.088 29.1413 182.088 29.4246C182.088 29.7026 182.029 29.9326 181.906 30.1145C181.783 30.3017 181.612 30.4408 181.403 30.5318C181.19 30.6226 180.949 30.6708 180.682 30.6708H179.815V31.9757H179.51V31.9757ZM179.815 30.3981H180.665C180.997 30.3981 181.264 30.3178 181.468 30.1575C181.671 30.0023 181.773 29.751 181.773 29.4033C181.773 29.0772 181.682 28.8365 181.505 28.692C181.329 28.5477 181.077 28.4728 180.756 28.4728H179.815V30.3981ZM184.42 32.0184C184.029 32.0184 183.703 31.933 183.441 31.7671C183.179 31.6014 182.981 31.3714 182.847 31.0772C182.714 30.7886 182.65 30.4569 182.65 30.0878C182.65 29.7189 182.719 29.3873 182.853 29.0932C182.986 28.7991 183.184 28.5692 183.446 28.4033C183.708 28.2375 184.029 28.1519 184.42 28.1519C184.81 28.1519 185.136 28.2375 185.398 28.4033C185.66 28.5745 185.853 28.8044 185.987 29.0932C186.12 29.3873 186.185 29.719 186.185 30.0878C186.185 30.4569 186.12 30.7831 185.987 31.0772C185.853 31.3714 185.655 31.6013 185.393 31.7671C185.131 31.933 184.81 32.0184 184.42 32.0184ZM184.42 31.7511C184.746 31.7511 185.019 31.6762 185.233 31.5265C185.447 31.3768 185.607 31.1735 185.709 30.9221C185.81 30.6708 185.864 30.3926 185.864 30.0878C185.864 29.8578 185.837 29.6441 185.778 29.4409C185.719 29.243 185.628 29.0664 185.511 28.9114C185.393 28.7563 185.243 28.6386 185.061 28.5478C184.88 28.4621 184.666 28.4194 184.42 28.4194C184.094 28.4194 183.821 28.4942 183.607 28.6494C183.388 28.8046 183.227 29.0024 183.125 29.2537C183.019 29.505 182.965 29.7832 182.965 30.0879C182.965 30.3875 183.019 30.6656 183.125 30.9169C183.232 31.1682 183.393 31.3715 183.612 31.5212C183.826 31.6764 184.093 31.7512 184.42 31.7512L184.42 31.7511ZM186.949 31.9757V28.1946H188.34C188.538 28.1946 188.72 28.216 188.885 28.2534C189.046 28.2962 189.185 28.3604 189.302 28.4514C189.415 28.5422 189.506 28.6599 189.57 28.8044C189.629 28.9541 189.661 29.1359 189.661 29.3446C189.661 29.5424 189.623 29.7136 189.554 29.8579C189.484 30.0024 189.377 30.1254 189.244 30.2216C189.11 30.3178 188.949 30.3874 188.762 30.4302L189.586 31.9757H189.249L188.447 30.4836H187.254V31.9757H186.949V31.9757ZM187.254 30.2108H188.19C188.34 30.2108 188.484 30.2001 188.623 30.1734C188.762 30.152 188.885 30.1091 188.998 30.045C189.105 29.9808 189.19 29.8899 189.254 29.7723C189.313 29.6599 189.345 29.5103 189.345 29.3284C189.35 29.1091 189.308 28.9327 189.217 28.8097C189.126 28.6866 188.998 28.5958 188.843 28.5477C188.682 28.4995 188.495 28.4728 188.286 28.4728H187.254V30.2108L187.254 30.2108ZM191.329 31.9757V28.4728H190.062V28.1947H192.902V28.4728H191.634V31.9757H191.329H191.329Z" fill="white"/>
<path d="M51.9634 38.6152C51.5731 38.6152 51.247 38.5297 50.9848 38.3639C50.7228 38.1982 50.5249 37.9682 50.3911 37.6739C50.2575 37.3852 50.1934 37.0537 50.1934 36.6846C50.1934 36.3157 50.2629 35.984 50.3966 35.6898C50.5302 35.3957 50.7281 35.1658 50.9902 35.0001C51.2521 34.8343 51.5731 34.7486 51.9634 34.7486C52.3539 34.7486 52.6801 34.8343 52.9422 35.0001C53.2043 35.1712 53.3968 35.4011 53.5305 35.6898C53.6641 35.9841 53.7284 36.3157 53.7284 36.6846C53.7284 37.0537 53.6641 37.3798 53.5305 37.6739C53.3968 37.9682 53.1989 38.1981 52.9368 38.3639C52.6748 38.5297 52.3539 38.6152 51.9634 38.6152ZM51.9634 38.3478C52.2898 38.3478 52.5625 38.2729 52.7764 38.1233C52.9903 37.9735 53.1508 37.7702 53.2524 37.5188C53.354 37.2674 53.4076 36.9893 53.4076 36.6846C53.4076 36.4546 53.3808 36.2407 53.3219 36.0375C53.263 35.8398 53.1722 35.6631 53.0544 35.5081C52.9368 35.353 52.787 35.2353 52.6053 35.1444C52.4234 35.0589 52.2096 35.0162 51.9634 35.0162C51.6373 35.0162 51.3646 35.091 51.1506 35.2462C50.9313 35.4012 50.7708 35.5991 50.6693 35.8504C50.5624 36.1017 50.5088 36.3799 50.5088 36.6847C50.5088 36.9843 50.5624 37.2624 50.6693 37.5137C50.7762 37.765 50.9367 37.9683 51.1559 38.118C51.3698 38.2731 51.6372 38.348 51.9633 38.348L51.9634 38.3478ZM54.4931 38.5724V34.7914H56.964V35.0694H54.7981V36.6898H56.6644V36.9678H54.7981V38.5723H54.4931V38.5724ZM60.4294 38.6151C60.2101 38.6151 60.0015 38.5883 59.8036 38.5296C59.6005 38.4707 59.424 38.3745 59.2742 38.2408C59.1244 38.107 59.0175 37.9306 58.9532 37.7114H59.2849C59.3544 37.8665 59.4454 37.9948 59.5683 38.0856C59.6914 38.1766 59.825 38.2461 59.9801 38.2835C60.1299 38.3264 60.2795 38.3478 60.4293 38.3478C60.5951 38.3478 60.7554 38.321 60.9106 38.2675C61.0658 38.2194 61.1886 38.1392 61.2849 38.0322C61.3813 37.9251 61.4294 37.7862 61.4294 37.6097C61.4294 37.4706 61.4027 37.3584 61.3492 37.2729C61.2903 37.1874 61.2154 37.1177 61.1246 37.0642C61.0284 37.016 60.916 36.9733 60.7931 36.9359C60.7021 36.9092 60.6058 36.8825 60.5095 36.8558C60.4133 36.8343 60.3223 36.813 60.2315 36.7861C60.1405 36.7594 60.0496 36.7327 59.9695 36.706C59.8573 36.6739 59.7502 36.6365 59.6432 36.5884C59.5309 36.5402 59.4346 36.4813 59.3545 36.4119C59.269 36.3424 59.1993 36.2514 59.1513 36.1498C59.0978 36.0482 59.0712 35.9198 59.0712 35.7701C59.0712 35.6149 59.0926 35.4814 59.1407 35.369C59.1888 35.2566 59.2529 35.1604 59.3386 35.0803C59.4242 35.0002 59.5205 34.9358 59.6327 34.8877C59.7451 34.8396 59.8627 34.8075 59.991 34.7807C60.114 34.7593 60.2423 34.7485 60.3761 34.7485C60.5793 34.7485 60.7719 34.7753 60.9484 34.8342C61.1248 34.893 61.2745 34.9839 61.3975 35.1122C61.5205 35.2405 61.6007 35.4116 61.6329 35.631H61.3227C61.2852 35.4759 61.2211 35.3582 61.1248 35.2674C61.0232 35.1765 60.9109 35.1122 60.7771 35.0748C60.6435 35.0374 60.5097 35.016 60.3706 35.016C60.2584 35.016 60.1461 35.0267 60.0338 35.0481C59.9215 35.0748 59.8145 35.1122 59.7182 35.1657C59.6219 35.2192 59.5418 35.2888 59.4829 35.3797C59.4242 35.4706 59.392 35.5882 59.392 35.7273C59.392 35.8662 59.4242 35.9786 59.4829 36.0695C59.5418 36.1605 59.6166 36.23 59.7129 36.2834C59.8038 36.337 59.9107 36.3851 60.0285 36.4225C60.1837 36.4706 60.3493 36.5133 60.5152 36.5509C60.6809 36.5883 60.8413 36.6364 60.9911 36.6845C61.0981 36.7166 61.1997 36.7593 61.2905 36.8074C61.3815 36.861 61.4616 36.9252 61.5312 36.9947C61.6007 37.0642 61.6542 37.1444 61.6915 37.2354C61.729 37.3262 61.7504 37.4333 61.7504 37.5455C61.7504 37.7434 61.7131 37.9091 61.6434 38.0428C61.5685 38.1766 61.467 38.2888 61.344 38.3745C61.221 38.46 61.0766 38.5188 60.9215 38.5564C60.7664 38.5991 60.6006 38.6151 60.4295 38.6151H60.4294Z" fill="white"/>
<path d="M63.3924 38.5725V35.0696H62.125V34.7915H64.9647V35.0696H63.6973V38.5725H63.3924Z" fill="white"/>
<path d="M64.8691 38.5725L66.3292 34.7915H66.7195L68.1902 38.5725H67.848L67.5164 37.722H65.5323L65.2061 38.5725H64.8692H64.8691ZM65.6339 37.4493H67.4148L66.527 35.107L65.6339 37.4493Z" fill="white"/>
<path d="M69.3601 38.5724V35.0695H68.0928V34.7915H70.9325V35.0695H69.6651V38.5724H69.3602H69.3601ZM71.5155 38.5724V34.7914H73.9863V35.0694H71.8204V36.556H73.767V36.8342H71.8204V38.2941H73.9863V38.5723H71.5155V38.5724ZM76.195 38.5724V34.7914H76.4998V38.5724H76.195ZM77.4731 38.5724V34.7914H77.8902L80.1685 38.1873V34.7914H80.4734V38.5724H80.0724L77.7781 35.1764V38.5724H77.4732H77.4731ZM81.4467 38.5724V34.7914H83.9175V35.0694H81.7515V36.6898H83.618V36.9678H81.7515V38.5723H81.4467V38.5724ZM86.1849 38.6151C85.7946 38.6151 85.4685 38.5296 85.2063 38.3638C84.9443 38.1981 84.7464 37.9681 84.6126 37.6738C84.479 37.3851 84.4148 37.0536 84.4148 36.6845C84.4148 36.3156 84.4844 35.9839 84.618 35.6898C84.7517 35.3957 84.9496 35.1657 85.2117 35C85.4736 34.8342 85.7946 34.7485 86.1849 34.7485C86.5754 34.7485 86.9016 34.8342 87.1637 35C87.4257 35.1711 87.6183 35.401 87.752 35.6898C87.8856 35.984 87.9499 36.3157 87.9499 36.6845C87.9499 37.0536 87.8856 37.3797 87.752 37.6738C87.6183 37.9681 87.4204 38.198 87.1584 38.3638C86.8962 38.5296 86.5754 38.6151 86.1849 38.6151ZM86.1849 38.3478C86.5112 38.3478 86.7839 38.2728 86.9979 38.1232C87.2118 37.9734 87.3723 37.7701 87.4739 37.5187C87.5755 37.2674 87.629 36.9892 87.629 36.6845C87.629 36.4545 87.6023 36.2406 87.5434 36.0375C87.4845 35.8397 87.3937 35.663 87.2759 35.508C87.1583 35.3529 87.0085 35.2352 86.8267 35.1444C86.6448 35.0588 86.4311 35.0161 86.1849 35.0161C85.8588 35.0161 85.5861 35.0909 85.3721 35.2461C85.1528 35.4012 84.9923 35.599 84.8907 35.8503C84.7838 36.1016 84.7303 36.3798 84.7303 36.6846C84.7303 36.9842 84.7838 37.2623 84.8907 37.5136C84.9977 37.7649 85.1582 37.9682 85.3774 38.1179C85.5913 38.273 85.8587 38.3479 86.1848 38.3479L86.1849 38.3478ZM88.7146 38.5723V34.7913H90.105C90.3029 34.7913 90.4848 34.8127 90.6506 34.85C90.8109 34.8929 90.95 34.9571 91.0676 35.048C91.18 35.1389 91.2708 35.2565 91.3352 35.401C91.394 35.5507 91.426 35.7326 91.426 35.9412C91.426 36.1391 91.3886 36.3102 91.319 36.4546C91.2494 36.5991 91.1426 36.722 91.009 36.8183C90.8752 36.9145 90.7147 36.9841 90.5276 37.0269L91.3512 38.5724H91.0142L90.2121 37.0803H89.0195V38.5724H88.7146V38.5723ZM89.0195 36.8074H89.9555C90.1051 36.8074 90.2495 36.7968 90.3886 36.7701C90.5277 36.7487 90.6507 36.7058 90.7629 36.6417C90.87 36.5774 90.9555 36.4865 91.0196 36.369C91.0786 36.2566 91.1106 36.1069 91.1106 35.9251C91.1158 35.7058 91.0731 35.5293 90.9822 35.4064C90.8913 35.2832 90.7629 35.1924 90.6078 35.1443C90.4475 35.0962 90.2603 35.0694 90.0517 35.0694H89.0196V36.8074L89.0195 36.8074ZM92.2176 38.5723V34.7913H92.6668L93.9985 37.0962L95.3087 34.7913H95.7473V38.5723H95.4423V35.1335L94.0679 37.5455H93.9182L92.5224 35.1335V38.5723H92.2176H92.2176ZM96.3088 38.5723L97.7689 34.7913H98.1593L99.6299 38.5723H99.2877L98.9561 37.7218H96.972L96.6459 38.5723H96.3089H96.3088ZM97.0736 37.4492H98.8545L97.9667 35.1068L97.0736 37.4492Z" fill="white"/>
<path d="M100.8 38.5725V35.0696H99.5322V34.7916H102.372V35.0696H101.105V38.5725H100.8H100.8ZM102.955 38.5725V34.7915H103.26V38.5725H102.955ZM105.795 38.6152C105.404 38.6152 105.078 38.5297 104.816 38.3639C104.554 38.1982 104.356 37.9682 104.222 37.6739C104.089 37.3852 104.025 37.0537 104.025 36.6846C104.025 36.3157 104.094 35.984 104.228 35.6898C104.362 35.3957 104.559 35.1658 104.822 35.0001C105.083 34.8343 105.404 34.7486 105.795 34.7486C106.185 34.7486 106.511 34.8343 106.773 35.0001C107.036 35.1712 107.228 35.4011 107.362 35.6898C107.495 35.9841 107.56 36.3157 107.56 36.6846C107.56 37.0537 107.495 37.3798 107.362 37.6739C107.228 37.9682 107.03 38.1981 106.768 38.3639C106.506 38.5297 106.185 38.6152 105.795 38.6152ZM105.795 38.3478C106.121 38.3478 106.394 38.2729 106.608 38.1233C106.822 37.9735 106.982 37.7702 107.084 37.5188C107.185 37.2674 107.239 36.9893 107.239 36.6846C107.239 36.4546 107.212 36.2407 107.153 36.0375C107.094 35.8398 107.003 35.6631 106.886 35.5081C106.768 35.353 106.618 35.2353 106.437 35.1444C106.255 35.0589 106.041 35.0162 105.795 35.0162C105.469 35.0162 105.196 35.091 104.982 35.2462C104.763 35.4012 104.602 35.5991 104.501 35.8504C104.394 36.1017 104.34 36.3799 104.34 36.6847C104.34 36.9843 104.394 37.2624 104.501 37.5137C104.607 37.765 104.768 37.9683 104.987 38.118C105.201 38.2731 105.468 38.348 105.795 38.348L105.795 38.3478ZM108.324 38.5724V34.7914H108.742L111.02 38.1873V34.7914H111.325V38.5724H110.924L108.629 35.1764V38.5724H108.324H108.324ZM115.058 38.6151C114.838 38.6151 114.63 38.5883 114.432 38.5296C114.229 38.4707 114.052 38.3745 113.902 38.2408C113.753 38.107 113.646 37.9306 113.581 37.7114H113.913C113.983 37.8665 114.074 37.9948 114.196 38.0856C114.32 38.1766 114.453 38.2461 114.608 38.2835C114.758 38.3264 114.908 38.3478 115.057 38.3478C115.223 38.3478 115.384 38.321 115.539 38.2675C115.694 38.2194 115.817 38.1392 115.913 38.0322C116.009 37.9251 116.058 37.7862 116.058 37.6097C116.058 37.4706 116.031 37.3584 115.977 37.2729C115.918 37.1874 115.844 37.1177 115.753 37.0642C115.657 37.016 115.544 36.9733 115.421 36.9359C115.33 36.9092 115.234 36.8825 115.138 36.8558C115.041 36.8343 114.95 36.813 114.86 36.7861C114.769 36.7594 114.678 36.7327 114.598 36.706C114.485 36.6739 114.378 36.6365 114.271 36.5884C114.159 36.5402 114.063 36.4813 113.983 36.4119C113.897 36.3424 113.827 36.2514 113.779 36.1497C113.726 36.0482 113.699 35.9198 113.699 35.7701C113.699 35.6149 113.721 35.4814 113.769 35.369C113.817 35.2566 113.881 35.1604 113.967 35.0803C114.052 35.0002 114.149 34.9358 114.261 34.8877C114.373 34.8396 114.491 34.8075 114.619 34.7807C114.742 34.7593 114.87 34.7485 115.004 34.7485C115.207 34.7485 115.4 34.7753 115.577 34.8342C115.753 34.893 115.903 34.9839 116.026 35.1122C116.149 35.2405 116.229 35.4116 116.261 35.631H115.951C115.913 35.4759 115.849 35.3582 115.753 35.2674C115.651 35.1765 115.539 35.1122 115.405 35.0748C115.272 35.0374 115.138 35.016 114.999 35.016C114.887 35.016 114.774 35.0267 114.662 35.0481C114.55 35.0748 114.443 35.1122 114.346 35.1657C114.25 35.2192 114.17 35.2888 114.111 35.3797C114.052 35.4706 114.02 35.5882 114.02 35.7273C114.02 35.8662 114.052 35.9786 114.111 36.0695C114.17 36.1605 114.245 36.23 114.341 36.2834C114.432 36.337 114.539 36.3851 114.657 36.4225C114.812 36.4707 114.977 36.5133 115.143 36.5509C115.309 36.5883 115.469 36.6364 115.619 36.6845C115.726 36.7166 115.828 36.7593 115.919 36.8074C116.01 36.861 116.09 36.9252 116.159 36.9947C116.229 37.0642 116.282 37.1444 116.32 37.2354C116.357 37.3262 116.379 37.4333 116.379 37.5455C116.379 37.7434 116.341 37.9092 116.272 38.0428C116.197 38.1766 116.095 38.2888 115.972 38.3745C115.849 38.46 115.705 38.5188 115.55 38.5564C115.395 38.5991 115.229 38.6151 115.058 38.6151H115.058Z" fill="white"/>
<path d="M118.042 38.5725V37.1499L116.699 34.7915H117.063L118.197 36.8398L119.33 34.7915H119.678L118.346 37.1446V38.5725H118.042Z" fill="white"/>
<path d="M121.468 38.6151C121.249 38.6151 121.04 38.5883 120.843 38.5296C120.639 38.4707 120.463 38.3745 120.313 38.2408C120.163 38.107 120.056 37.9306 119.992 37.7114H120.324C120.393 37.8665 120.484 37.9948 120.607 38.0856C120.73 38.1766 120.864 38.2461 121.019 38.2835C121.169 38.3264 121.318 38.3478 121.468 38.3478C121.634 38.3478 121.794 38.321 121.95 38.2675C122.105 38.2194 122.228 38.1392 122.324 38.0322C122.42 37.9251 122.468 37.7862 122.468 37.6097C122.468 37.4706 122.442 37.3584 122.388 37.2729C122.329 37.1874 122.254 37.1177 122.164 37.0642C122.067 37.016 121.955 36.9733 121.832 36.9359C121.741 36.9092 121.645 36.8825 121.548 36.8558C121.452 36.8343 121.361 36.813 121.27 36.7861C121.179 36.7594 121.089 36.7327 121.008 36.706C120.896 36.6739 120.789 36.6365 120.682 36.5884C120.57 36.5402 120.474 36.4813 120.393 36.4119C120.308 36.3424 120.238 36.2514 120.19 36.1497C120.137 36.0482 120.11 35.9197 120.11 35.7701C120.11 35.6149 120.132 35.4814 120.18 35.369C120.228 35.2566 120.292 35.1604 120.378 35.0803C120.463 35.0002 120.559 34.9358 120.672 34.8877C120.784 34.8396 120.902 34.8075 121.03 34.7807C121.153 34.7593 121.281 34.7485 121.415 34.7485C121.618 34.7485 121.811 34.7753 121.987 34.8342C122.164 34.893 122.313 34.9839 122.436 35.1122C122.559 35.2405 122.64 35.4116 122.672 35.631H122.362C122.324 35.4759 122.26 35.3582 122.164 35.2674C122.062 35.1765 121.95 35.1122 121.816 35.0748C121.682 35.0374 121.549 35.016 121.41 35.016C121.297 35.016 121.185 35.0267 121.073 35.0481C120.96 35.0748 120.853 35.1122 120.757 35.1657C120.661 35.2192 120.581 35.2888 120.522 35.3797C120.463 35.4706 120.431 35.5882 120.431 35.7273C120.431 35.8662 120.463 35.9786 120.522 36.0695C120.581 36.1605 120.656 36.23 120.752 36.2834C120.843 36.337 120.95 36.3851 121.067 36.4225C121.223 36.4706 121.388 36.5133 121.554 36.5509C121.72 36.5883 121.88 36.6364 122.03 36.6845C122.137 36.7166 122.239 36.7593 122.329 36.8074C122.42 36.861 122.501 36.9252 122.57 36.9947C122.64 37.0642 122.693 37.1444 122.73 37.2354C122.768 37.3262 122.789 37.4333 122.789 37.5455C122.789 37.7434 122.752 37.9092 122.682 38.0428C122.607 38.1766 122.506 38.2888 122.383 38.3745C122.26 38.46 122.116 38.5188 121.96 38.5564C121.805 38.5991 121.639 38.6151 121.468 38.6151H121.468Z" fill="white"/>
<path d="M124.431 38.5724V35.0695H123.164V34.7915H126.004V35.0695H124.736V38.5724H124.432H124.431ZM126.587 38.5724V34.7914H129.058V35.0694H126.892V36.556H128.838V36.8342H126.892V38.2941H129.058V38.5723H126.587V38.5724ZM129.822 38.5724V34.7914H130.272L131.603 37.0963L132.913 34.7914H133.352V38.5724H133.047V35.1336L131.673 37.5455H131.523L130.127 35.1336V38.5724H129.822H129.822ZM135.641 38.6151C135.422 38.6151 135.213 38.5883 135.015 38.5296C134.812 38.4707 134.636 38.3745 134.486 38.2408C134.336 38.107 134.229 37.9306 134.165 37.7114H134.496C134.566 37.8665 134.657 37.9948 134.78 38.0856C134.903 38.1766 135.037 38.2461 135.192 38.2835C135.341 38.3264 135.491 38.3478 135.641 38.3478C135.807 38.3478 135.967 38.321 136.122 38.2675C136.277 38.2194 136.4 38.1392 136.496 38.0322C136.593 37.9251 136.641 37.7862 136.641 37.6097C136.641 37.4706 136.614 37.3584 136.561 37.2729C136.502 37.1874 136.427 37.1177 136.336 37.0642C136.24 37.016 136.128 36.9733 136.005 36.9359C135.914 36.9092 135.817 36.8825 135.721 36.8558C135.625 36.8343 135.534 36.813 135.443 36.7861C135.352 36.7594 135.261 36.7327 135.181 36.706C135.069 36.6739 134.962 36.6365 134.855 36.5884C134.743 36.5402 134.646 36.4813 134.566 36.4119C134.481 36.3424 134.411 36.2514 134.363 36.1498C134.309 36.0482 134.283 35.9198 134.283 35.7701C134.283 35.6149 134.304 35.4814 134.352 35.369C134.4 35.2566 134.465 35.1604 134.55 35.0803C134.636 35.0002 134.732 34.9358 134.844 34.8877C134.957 34.8396 135.074 34.8075 135.203 34.7807C135.326 34.7593 135.454 34.7485 135.588 34.7485C135.791 34.7485 135.984 34.7753 136.16 34.8342C136.336 34.893 136.486 34.9839 136.609 35.1122C136.732 35.2405 136.812 35.4116 136.844 35.631H136.534C136.497 35.4759 136.433 35.3582 136.336 35.2674C136.235 35.1765 136.122 35.1122 135.989 35.0748C135.855 35.0374 135.721 35.016 135.582 35.016C135.47 35.016 135.358 35.0267 135.245 35.0481C135.133 35.0748 135.026 35.1122 134.93 35.1657C134.834 35.2192 134.753 35.2888 134.694 35.3797C134.636 35.4706 134.604 35.5882 134.604 35.7273C134.604 35.8662 134.636 35.9786 134.694 36.0695C134.753 36.1605 134.828 36.23 134.924 36.2834C135.015 36.337 135.122 36.3851 135.24 36.4225C135.395 36.4706 135.561 36.5133 135.727 36.5509C135.892 36.5883 136.053 36.6364 136.203 36.6845C136.31 36.7166 136.411 36.7593 136.502 36.8074C136.593 36.861 136.673 36.9252 136.743 36.9947C136.812 37.0642 136.866 37.1444 136.903 37.2354C136.941 37.3262 136.962 37.4333 136.962 37.5455C136.962 37.7434 136.925 37.9091 136.855 38.0428C136.78 38.1766 136.678 38.2888 136.556 38.3745C136.433 38.46 136.288 38.5188 136.133 38.5564C135.978 38.5991 135.812 38.6151 135.641 38.6151H135.641Z" fill="white"/>
<path d="M66.3626 17.0178C66.3626 19.2583 65.6539 20.9729 64.2593 22.1388C62.8647 23.3276 60.853 23.922 58.2696 23.922C55.6634 23.922 53.6516 23.3276 52.257 22.1388C50.8395 20.9729 50.1309 19.2583 50.1309 17.0178V7.69027H53.8573V17.315C53.8573 18.1838 54.0172 18.8468 54.3145 19.3041C54.6117 19.7841 55.0918 20.1042 55.7091 20.2642C56.3263 20.4472 57.195 20.5385 58.2695 20.5385C59.344 20.5385 60.2128 20.4472 60.83 20.2642C61.4472 20.0812 61.9274 19.7611 62.2246 19.2811C62.5217 18.8239 62.6589 18.1608 62.6589 17.315V7.69027H66.3625V17.0178H66.3626ZM68.7173 20.15L77.7707 10.9595H68.9688V7.69027H82.7773V11.3482L73.6785 20.4243H83.0059V23.6936H68.7173V20.15ZM85.5665 7.69027H89.3844V23.6935H85.5665V7.69027ZM92.9737 7.69027H97.9346L104.313 16.5835L105.822 18.7325H105.913L105.89 16.6292V7.69027H109.594V23.6935H104.839L98.2775 14.4573L96.7458 12.2626H96.6544L96.6773 14.4573V23.6935H92.9737V7.69027ZM116.887 11.0966V14.3431H124.5V17.6351H116.887V23.6935H113.161V7.69027H125.254V11.0966H116.887ZM136.457 23.922C134.651 23.922 133.027 23.5791 131.633 22.9162C130.238 22.2532 129.141 21.3159 128.364 20.0813C127.563 18.8469 127.175 17.4065 127.175 15.7376C127.175 14.0687 127.563 12.6055 128.364 11.3482C129.141 10.0907 130.238 9.13052 131.656 8.46768C133.05 7.80466 134.651 7.46176 136.457 7.46176C138.263 7.46176 139.886 7.80475 141.281 8.46768C142.675 9.13061 143.749 10.0908 144.527 11.3482C145.304 12.6056 145.693 14.0687 145.693 15.7376C145.693 17.4065 145.304 18.8469 144.527 20.0813C143.727 21.3159 142.652 22.2532 141.258 22.9162C139.863 23.5792 138.263 23.922 136.457 23.922ZM136.457 20.5385C138.331 20.5385 139.703 20.1499 140.572 19.3726C141.418 18.6181 141.852 17.3837 141.852 15.692C141.852 14.4574 141.669 13.4971 141.281 12.7885C140.892 12.0798 140.32 11.5769 139.543 11.2796C138.766 10.9825 137.737 10.8451 136.457 10.8451C135.176 10.8451 134.148 10.9824 133.37 11.2796C132.57 11.5768 131.999 12.0798 131.61 12.7885C131.221 13.4971 131.039 14.4574 131.039 15.692C131.039 16.9494 131.221 17.9323 131.61 18.6411C131.999 19.3499 132.57 19.8299 133.348 20.1043C134.125 20.4014 135.154 20.5386 136.457 20.5386L136.457 20.5385ZM156.552 23.922C154.723 23.922 153.1 23.5791 151.705 22.9162C150.288 22.2532 149.191 21.3159 148.413 20.0813C147.613 18.8469 147.224 17.4065 147.224 15.7376C147.224 14.0458 147.59 12.5828 148.345 11.3253C149.099 10.0907 150.174 9.13052 151.568 8.46759C152.963 7.80457 154.632 7.46167 156.552 7.46167C158.952 7.46167 160.873 8.03309 162.336 9.1534C163.776 10.2965 164.668 11.9881 165.011 14.2058L161.284 14.9146L161.239 14.8918C161.056 13.7942 160.827 12.9714 160.53 12.3997C160.233 11.8283 159.798 11.4394 159.204 11.188C158.587 10.9594 157.718 10.845 156.552 10.845C155.158 10.845 154.083 10.9823 153.306 11.2795C152.506 11.5767 151.957 12.0797 151.614 12.7884C151.271 13.497 151.088 14.4573 151.088 15.6919C151.088 16.9494 151.271 17.9093 151.614 18.618C151.957 19.3268 152.528 19.807 153.329 20.1041C154.106 20.4013 155.18 20.5385 156.552 20.5385C157.718 20.5385 158.587 20.4014 159.204 20.1498C159.821 19.8984 160.256 19.5096 160.553 18.9381C160.85 18.3666 161.079 17.5437 161.239 16.4691L161.285 16.4462L165.011 17.1548C164.668 19.3954 163.776 21.0872 162.336 22.2074C160.873 23.3505 158.953 23.9219 156.552 23.9219V23.922ZM176.168 23.922C174.361 23.922 172.738 23.5791 171.344 22.9162C169.949 22.2532 168.852 21.3159 168.074 20.0813C167.274 18.8469 166.886 17.4065 166.886 15.7376C166.886 14.0687 167.274 12.6055 168.074 11.3482C168.852 10.0907 169.949 9.13052 171.367 8.46768C172.761 7.80466 174.361 7.46176 176.168 7.46176C177.974 7.46176 179.597 7.80475 180.991 8.46768C182.386 9.13061 183.46 10.0908 184.238 11.3482C185.015 12.6056 185.404 14.0687 185.404 15.7376C185.404 17.4065 185.015 18.8469 184.238 20.0813C183.437 21.3159 182.363 22.2532 180.968 22.9162C179.574 23.5792 177.974 23.922 176.168 23.922ZM176.168 20.5385C178.042 20.5385 179.414 20.1499 180.283 19.3726C181.128 18.6181 181.563 17.3837 181.563 15.692C181.563 14.4574 181.38 13.4971 180.991 12.7885C180.603 12.0798 180.031 11.5769 179.254 11.2796C178.476 10.9825 177.448 10.8451 176.168 10.8451C174.887 10.8451 173.858 10.9824 173.081 11.2796C172.281 11.5768 171.709 12.0798 171.321 12.7885C170.932 13.4971 170.749 14.4574 170.749 15.692C170.749 16.9494 170.932 17.9323 171.321 18.6411C171.709 19.3499 172.281 19.8299 173.058 20.1043C173.836 20.4014 174.864 20.5386 176.168 20.5386L176.168 20.5385ZM187.964 7.69027H194.274L197.566 17.0636L198.572 20.3328L199.578 17.0636L202.847 7.69027H209.134V23.6935H205.568V14.3658L205.613 11.1423H205.522L204.356 14.3658L200.881 23.6935H196.263L192.765 14.3658L191.622 11.1423H191.531L191.554 14.3658V23.6935H187.964V7.69027H187.964Z" fill="white"/>
<path fill-rule="evenodd" clip-rule="evenodd" d="M42 0.000174639H5.51684C2.48249 0.000174639 0 2.48258 0 5.51701V6.74341C0.997973 6.89596 2.10614 7.19049 3.3067 7.61626C7.08702 8.95748 11.7938 11.6082 16.8475 15.268C20.9547 12.2081 24.7342 10.019 27.8 8.93242C30.7945 7.87088 33.1189 7.85857 34.419 9.10715C35.8919 10.5207 35.8327 13.3472 34.5191 17.0492C33.1773 20.8297 30.5267 25.5365 26.8672 30.59C29.9274 34.6973 32.1159 38.4771 33.2024 41.543C33.2577 41.6972 33.309 41.8492 33.358 41.9999H36.4831C39.5174 41.9999 41.9999 39.518 41.9999 36.4836V0L42 0.000174639ZM0 23.1635V36.4832C0 38.5471 1.14851 40.355 2.83788 41.3004C4.1254 41.3383 5.68344 41.0224 7.45524 40.3852C11.0672 39.0877 15.561 36.4596 20.4753 32.7798C20.514 32.7502 20.5702 32.7585 20.6002 32.7974C20.6273 32.8337 20.6225 32.8851 20.5904 32.916C19.206 34.2361 17.8267 35.4851 16.4659 36.6559C15.0804 37.8475 13.7132 38.9588 12.378 39.9808L12.3773 39.9814L11.5979 40.5702L11.5976 40.5707L11.5966 40.5713L11.596 40.5717C10.9259 41.0715 10.2643 41.548 9.61195 41.9996H26.6423C27.9033 40.5476 27.8319 37.9878 26.6434 34.6796C25.3456 31.0677 22.7173 26.5741 19.0375 21.6594C19.0079 21.6205 19.0159 21.5638 19.0551 21.5343C19.0916 21.5072 19.1429 21.5121 19.1734 21.5441H19.1739C20.4938 22.9287 21.7435 24.3082 22.9144 25.669C24.0724 27.0156 25.1544 28.345 26.153 29.6448C27.882 26.2732 28.9973 23.2826 29.3956 20.8677C29.7802 18.5334 29.4951 16.7412 28.4464 15.6698C27.0338 14.2273 24.3938 14.2494 20.9369 15.4917C17.325 16.7895 12.8318 19.4171 7.91716 23.0971C7.87813 23.1265 7.82225 23.1188 7.79195 23.0793C7.76505 23.043 7.76994 22.9916 7.80225 22.9612H7.80199C9.18591 21.6418 10.5646 20.3926 11.9249 19.2227C13.2715 18.0638 14.6024 16.9815 15.9025 15.9826C12.5309 14.2535 9.54026 13.1377 7.12552 12.7395C4.79078 12.3544 2.9989 12.6396 1.92749 13.6886C0.484448 15.1013 0.507238 17.7414 1.74936 21.1976C3.04675 24.8095 5.67497 29.3032 9.35479 34.217C9.38456 34.2563 9.37592 34.3125 9.33654 34.3421C9.30065 34.3696 9.24931 34.3647 9.2184 34.3321V34.3328C7.89891 32.9487 6.65033 31.5701 5.48008 30.2097C4.28808 28.8238 3.17624 27.456 2.15417 26.1202L2.15365 26.1198L1.5645 25.3403L1.5638 25.3399L1.56354 25.3389L1.56276 25.3383C1.01334 24.6022 0.492481 23.8765 0.000174639 23.1636L0 23.1635Z" fill="white"/>
</svg>
