<svg width="914" height="184" viewBox="0 0 914 184" fill="none" xmlns="http://www.w3.org/2000/svg">
<path d="M225.933 139.872C224.975 139.872 224.064 139.756 223.199 139.499C222.312 139.242 221.54 138.821 220.887 138.237C220.232 137.653 219.765 136.882 219.484 135.924H220.933C221.237 136.602 221.634 137.163 222.171 137.56C222.708 137.957 223.293 138.261 223.97 138.424C224.624 138.611 225.278 138.704 225.932 138.704C226.657 138.704 227.357 138.588 228.035 138.354C228.713 138.144 229.25 137.793 229.67 137.326C230.091 136.858 230.301 136.251 230.301 135.481C230.301 134.873 230.185 134.383 229.951 134.009C229.694 133.635 229.367 133.331 228.97 133.097C228.55 132.887 228.059 132.701 227.521 132.537C227.124 132.42 226.703 132.304 226.283 132.187C225.863 132.093 225.465 132 225.069 131.883C224.671 131.766 224.274 131.649 223.923 131.532C223.433 131.393 222.966 131.229 222.499 131.018C222.008 130.808 221.587 130.551 221.237 130.247C220.864 129.944 220.559 129.546 220.35 129.103C220.116 128.659 220 128.098 220 127.444C220 126.766 220.093 126.183 220.303 125.692C220.514 125.201 220.794 124.78 221.168 124.43C221.542 124.08 221.962 123.799 222.452 123.589C222.943 123.379 223.457 123.239 224.018 123.122C224.555 123.028 225.115 122.981 225.7 122.981C226.587 122.981 227.429 123.098 228.2 123.355C228.971 123.612 229.625 124.009 230.162 124.57C230.699 125.131 231.05 125.878 231.19 126.836H229.835C229.671 126.159 229.391 125.644 228.971 125.248C228.527 124.851 228.036 124.57 227.452 124.407C226.868 124.243 226.284 124.149 225.676 124.149C225.186 124.149 224.695 124.196 224.205 124.29C223.714 124.407 223.247 124.57 222.826 124.804C222.406 125.038 222.055 125.341 221.798 125.739C221.541 126.135 221.401 126.649 221.401 127.257C221.401 127.864 221.542 128.355 221.798 128.752C222.055 129.149 222.382 129.453 222.803 129.687C223.2 129.92 223.667 130.13 224.182 130.294C224.859 130.505 225.583 130.691 226.307 130.855C227.031 131.018 227.733 131.228 228.386 131.438C228.854 131.579 229.298 131.766 229.694 131.976C230.092 132.209 230.442 132.49 230.746 132.794C231.05 133.097 231.283 133.447 231.446 133.845C231.61 134.242 231.704 134.709 231.704 135.199C231.704 136.064 231.541 136.788 231.236 137.373C230.909 137.957 230.465 138.447 229.928 138.821C229.391 139.194 228.76 139.452 228.083 139.616C227.405 139.802 226.681 139.872 225.933 139.872H225.933ZM235.278 139.686V123.168H236.61V139.686H235.278ZM240.862 139.686V123.168H242.684L252.637 138.004V123.168H253.968V139.686H252.216L242.194 124.851V139.686H240.862H240.862ZM264.855 139.872C263.173 139.872 261.771 139.499 260.674 138.774C259.552 138.05 258.711 137.069 258.173 135.808C257.613 134.569 257.333 133.167 257.309 131.602C257.286 130.387 257.45 129.266 257.753 128.214C258.057 127.187 258.501 126.275 259.132 125.481C259.763 124.71 260.534 124.079 261.491 123.636C262.426 123.192 263.524 122.981 264.786 122.981C265.813 122.981 266.748 123.121 267.612 123.402C268.454 123.705 269.178 124.126 269.808 124.71C270.416 125.294 270.884 126.018 271.21 126.93H269.692C269.435 126.322 269.061 125.808 268.571 125.387C268.08 124.99 267.495 124.663 266.841 124.453C266.187 124.243 265.51 124.149 264.809 124.149C263.734 124.149 262.8 124.336 262.029 124.733C261.258 125.13 260.627 125.667 260.137 126.345C259.646 127.023 259.272 127.817 259.062 128.681C258.828 129.569 258.711 130.504 258.711 131.509C258.711 132.817 258.922 134.008 259.366 135.106C259.786 136.204 260.464 137.069 261.375 137.723C262.286 138.377 263.431 138.704 264.855 138.704C266.047 138.704 267.075 138.47 267.917 137.98C268.734 137.513 269.388 136.835 269.831 135.97C270.276 135.106 270.509 134.078 270.533 132.91H264.855V131.719H271.771V132.793C271.771 134.195 271.49 135.433 270.929 136.485C270.369 137.559 269.575 138.4 268.547 138.984C267.495 139.568 266.281 139.872 264.855 139.872L264.855 139.872ZM275.112 139.686V123.168H276.444V138.471H285.906V139.685H275.112V139.686ZM288.428 139.686V123.168H299.222V124.383H289.76V130.878H298.264V132.092H289.76V138.47H299.222V139.685H288.428V139.686ZM308.87 139.686V123.168H310.202V139.686H308.87ZM314.454 139.686V123.168H316.276L326.229 138.004V123.168H327.561V139.686H325.809L315.787 124.851V139.686H314.454H314.454ZM335.644 139.686V124.383H330.108V123.169H342.513V124.383H336.976V139.686H335.644H335.644ZM345.06 139.686V123.168H355.853V124.383H346.391V130.878H354.895V132.092H346.391V138.47H355.853V139.685H345.06V139.686ZM365.829 139.872C364.147 139.872 362.745 139.499 361.647 138.774C360.526 138.05 359.685 137.069 359.147 135.808C358.587 134.569 358.306 133.167 358.283 131.602C358.26 130.387 358.424 129.266 358.727 128.214C359.031 127.187 359.474 126.275 360.106 125.481C360.736 124.71 361.507 124.079 362.465 123.636C363.4 123.192 364.498 122.981 365.759 122.981C366.787 122.981 367.722 123.121 368.586 123.402C369.428 123.705 370.152 124.126 370.782 124.71C371.39 125.294 371.857 126.018 372.184 126.93H370.666C370.409 126.322 370.034 125.808 369.544 125.387C369.054 124.99 368.469 124.663 367.815 124.453C367.161 124.243 366.483 124.149 365.783 124.149C364.708 124.149 363.774 124.336 363.003 124.733C362.231 125.13 361.601 125.667 361.111 126.345C360.62 127.023 360.246 127.817 360.035 128.681C359.802 129.569 359.685 130.504 359.685 131.509C359.685 132.817 359.896 134.008 360.34 135.106C360.76 136.204 361.438 137.069 362.348 137.723C363.259 138.377 364.405 138.704 365.829 138.704C367.021 138.704 368.049 138.47 368.89 137.98C369.708 137.513 370.362 136.835 370.805 135.97C371.249 135.106 371.483 134.078 371.506 132.91H365.829V131.719H372.745V132.793C372.745 134.195 372.464 135.433 371.903 136.485C371.343 137.559 370.549 138.4 369.521 138.984C368.469 139.568 367.254 139.872 365.829 139.872L365.829 139.872ZM376.085 139.686V123.168H382.159C383.024 123.168 383.818 123.262 384.543 123.425C385.243 123.612 385.851 123.892 386.365 124.29C386.855 124.687 387.252 125.201 387.533 125.832C387.79 126.486 387.93 127.28 387.93 128.192C387.93 129.056 387.767 129.804 387.463 130.434C387.159 131.066 386.692 131.603 386.108 132.023C385.524 132.443 384.823 132.747 384.005 132.934L387.603 139.686H386.131L382.627 133.168H377.417V139.686H376.085V139.686ZM377.417 131.976H381.506C382.16 131.976 382.791 131.929 383.398 131.813C384.006 131.719 384.543 131.532 385.033 131.252C385.501 130.971 385.875 130.574 386.155 130.061C386.412 129.57 386.552 128.916 386.552 128.121C386.575 127.163 386.389 126.392 385.991 125.855C385.594 125.318 385.033 124.921 384.356 124.711C383.655 124.5 382.838 124.383 381.926 124.383H377.417V131.976L377.417 131.976ZM389.589 139.686L395.967 123.168H397.672L404.097 139.686H402.602L401.154 135.971H392.486L391.061 139.686H389.589H389.589ZM392.93 134.78H400.709L396.831 124.547L392.93 134.78Z" fill="#FE830C"/>
<path d="M409.204 139.685V124.383H403.668V123.168H416.073V124.383H410.536V139.685H409.204Z" fill="#FE830C"/>
<path d="M425.138 139.872C423.433 139.872 422.008 139.499 420.863 138.775C419.718 138.051 418.854 137.046 418.27 135.761C417.686 134.5 417.405 133.051 417.405 131.438C417.405 129.827 417.709 128.378 418.293 127.093C418.877 125.808 419.741 124.804 420.886 124.08C422.031 123.355 423.433 122.981 425.138 122.981C426.844 122.981 428.269 123.355 429.413 124.08C430.559 124.827 431.399 125.832 431.984 127.093C432.567 128.378 432.848 129.827 432.848 131.438C432.848 133.051 432.567 134.476 431.984 135.761C431.399 137.046 430.535 138.05 429.39 138.775C428.245 139.499 426.844 139.872 425.138 139.872ZM425.138 138.704C426.564 138.704 427.755 138.377 428.689 137.723C429.624 137.069 430.325 136.181 430.769 135.083C431.212 133.985 431.447 132.77 431.447 131.438C431.447 130.434 431.33 129.5 431.072 128.612C430.815 127.748 430.419 126.976 429.904 126.299C429.39 125.622 428.736 125.107 427.942 124.711C427.147 124.336 426.213 124.15 425.138 124.15C423.713 124.15 422.522 124.477 421.587 125.155C420.629 125.833 419.928 126.697 419.484 127.795C419.017 128.893 418.784 130.107 418.784 131.439C418.784 132.748 419.017 133.962 419.484 135.06C419.952 136.158 420.653 137.046 421.61 137.7C422.545 138.378 423.713 138.705 425.138 138.705L425.138 138.704ZM436.189 139.685V123.168H442.263C443.127 123.168 443.922 123.261 444.646 123.425C445.347 123.612 445.954 123.892 446.468 124.29C446.959 124.686 447.356 125.2 447.637 125.832C447.893 126.486 448.034 127.28 448.034 128.191C448.034 129.056 447.871 129.803 447.566 130.434C447.263 131.065 446.795 131.603 446.212 132.023C445.627 132.443 444.926 132.747 444.109 132.934L447.707 139.686H446.235L442.73 133.168H437.521V139.686H436.189V139.685ZM437.521 131.975H441.609C442.264 131.975 442.894 131.929 443.502 131.812C444.109 131.719 444.647 131.531 445.137 131.251C445.604 130.971 445.979 130.574 446.259 130.06C446.516 129.569 446.656 128.915 446.656 128.121C446.678 127.163 446.492 126.392 446.095 125.855C445.698 125.317 445.137 124.92 444.46 124.71C443.759 124.5 442.941 124.383 442.03 124.383H437.521V131.976L437.521 131.975ZM457.799 139.685V123.168H468.593V124.383H459.131V131.461H467.284V132.676H459.131V139.685H457.799V139.685ZM478.498 139.872C476.793 139.872 475.368 139.499 474.223 138.774C473.078 138.05 472.214 137.045 471.63 135.76C471.046 134.499 470.765 133.05 470.765 131.438C470.765 129.826 471.069 128.378 471.653 127.093C472.238 125.808 473.102 124.804 474.247 124.079C475.391 123.355 476.793 122.981 478.498 122.981C480.204 122.981 481.629 123.355 482.774 124.079C483.919 124.827 484.76 125.831 485.344 127.093C485.928 128.378 486.208 129.827 486.208 131.438C486.208 133.05 485.928 134.476 485.344 135.76C484.76 137.045 483.896 138.05 482.751 138.774C481.606 139.499 480.204 139.872 478.498 139.872ZM478.498 138.704C479.924 138.704 481.115 138.377 482.05 137.723C482.984 137.069 483.685 136.181 484.129 135.082C484.573 133.985 484.807 132.77 484.807 131.438C484.807 130.433 484.69 129.499 484.433 128.612C484.176 127.747 483.779 126.976 483.264 126.299C482.75 125.621 482.096 125.107 481.302 124.71C480.507 124.336 479.573 124.15 478.498 124.15C477.074 124.15 475.882 124.476 474.947 125.154C473.989 125.832 473.288 126.696 472.844 127.794C472.378 128.892 472.144 130.107 472.144 131.438C472.144 132.747 472.378 133.962 472.844 135.06C473.312 136.158 474.013 137.046 474.97 137.7C475.905 138.378 477.073 138.705 478.498 138.705L478.498 138.704ZM489.549 139.685V123.168H495.623C496.488 123.168 497.282 123.261 498.007 123.424C498.707 123.611 499.315 123.892 499.829 124.289C500.319 124.686 500.716 125.2 500.997 125.831C501.254 126.485 501.394 127.28 501.394 128.191C501.394 129.055 501.231 129.803 500.926 130.434C500.623 131.065 500.155 131.602 499.572 132.022C498.988 132.443 498.287 132.747 497.469 132.934L501.067 139.685H499.595L496.091 133.167H490.881V139.685H489.549V139.685ZM490.881 131.975H494.97C495.624 131.975 496.254 131.929 496.862 131.812C497.47 131.718 498.007 131.531 498.497 131.251C498.965 130.971 499.339 130.573 499.619 130.06C499.876 129.569 500.016 128.915 500.016 128.12C500.039 127.163 499.852 126.392 499.455 125.855C499.058 125.317 498.497 124.92 497.82 124.71C497.119 124.499 496.302 124.383 495.39 124.383H490.882V131.975L490.881 131.975ZM514.991 139.685V124.383H509.454V123.168H521.86V124.383H516.323V139.685H514.991H514.991ZM524.406 139.685V123.168H525.738V130.994H535.784V123.168H537.116V139.685H535.784V132.186H525.738V139.685H524.406ZM541.368 139.685V123.168H552.162V124.382H542.7V130.877H551.203V132.091H542.7V138.47H552.162V139.684H541.368V139.685ZM568.445 139.872C566.739 139.872 565.314 139.498 564.216 138.774C563.095 138.05 562.254 137.045 561.717 135.76C561.18 134.499 560.899 133.05 560.899 131.438C560.899 129.826 561.18 128.401 561.74 127.116C562.278 125.855 563.119 124.85 564.264 124.102C565.385 123.354 566.81 122.98 568.515 122.98C569.52 122.98 570.431 123.121 571.273 123.424C572.09 123.728 572.815 124.148 573.398 124.733C573.982 125.316 574.403 126.041 574.683 126.929H573.304C572.931 126.018 572.323 125.316 571.483 124.85C570.618 124.382 569.636 124.149 568.539 124.149C567.09 124.149 565.899 124.476 564.988 125.154C564.053 125.831 563.376 126.696 562.932 127.794C562.488 128.891 562.254 130.083 562.254 131.392C562.254 132.7 562.464 133.915 562.908 135.013C563.352 136.134 564.03 137.022 564.964 137.7C565.875 138.377 567.067 138.704 568.492 138.704C569.216 138.704 569.893 138.611 570.571 138.401C571.248 138.19 571.832 137.886 572.347 137.466C572.86 137.045 573.234 136.531 573.468 135.924H574.986C574.683 136.788 574.192 137.513 573.562 138.096C572.907 138.681 572.136 139.124 571.272 139.428C570.407 139.732 569.449 139.872 568.445 139.872L568.445 139.872ZM578.187 139.685V123.168H584.261C585.125 123.168 585.92 123.261 586.644 123.424C587.345 123.611 587.952 123.892 588.466 124.289C588.957 124.686 589.354 125.2 589.635 125.831C589.891 126.485 590.031 127.28 590.031 128.191C590.031 129.055 589.868 129.803 589.564 130.434C589.26 131.065 588.793 131.602 588.209 132.022C587.625 132.443 586.924 132.747 586.107 132.934L589.704 139.685H588.232L584.728 133.167H579.519V139.685H578.187V139.685ZM579.519 131.975H583.607C584.261 131.975 584.892 131.929 585.5 131.812C586.107 131.718 586.644 131.531 587.134 131.251C587.602 130.971 587.976 130.573 588.256 130.06C588.513 129.569 588.653 128.915 588.653 128.12C588.676 127.163 588.49 126.392 588.093 125.855C587.696 125.317 587.134 124.92 586.457 124.71C585.757 124.499 584.939 124.383 584.028 124.383H579.519V131.975L579.519 131.975ZM593.49 139.685V123.168H604.283V124.382H594.822V130.877H603.325V132.091H594.822V138.47H604.283V139.684H593.49V139.685ZM605.825 139.685L612.203 123.168H613.908L620.333 139.685H618.838L617.39 135.97H608.722L607.297 139.685H605.825H605.825ZM609.166 134.779H616.946L613.068 124.546L609.166 134.779Z" fill="#FE830C"/>
<path d="M625.442 139.685V124.383H619.905V123.168H632.311V124.383H626.774V139.685H625.442H625.442ZM634.858 139.685V123.168H636.189V139.685H634.858ZM647.263 139.872C645.558 139.872 644.133 139.498 642.988 138.774C641.843 138.05 640.979 137.045 640.395 135.76C639.811 134.499 639.53 133.05 639.53 131.438C639.53 129.826 639.834 128.378 640.418 127.093C641.002 125.808 641.866 124.804 643.012 124.079C644.156 123.355 645.558 122.981 647.263 122.981C648.969 122.981 650.394 123.355 651.539 124.079C652.684 124.827 653.524 125.831 654.109 127.093C654.692 128.378 654.973 129.827 654.973 131.438C654.973 133.05 654.692 134.475 654.109 135.76C653.524 137.045 652.66 138.05 651.515 138.774C650.371 139.498 648.969 139.872 647.263 139.872ZM647.263 138.704C648.689 138.704 649.88 138.377 650.814 137.723C651.749 137.069 652.45 136.181 652.894 135.082C653.338 133.985 653.572 132.77 653.572 131.438C653.572 130.433 653.455 129.499 653.198 128.612C652.94 127.747 652.543 126.976 652.029 126.299C651.515 125.621 650.861 125.107 650.067 124.71C649.272 124.336 648.338 124.149 647.263 124.149C645.838 124.149 644.647 124.476 643.712 125.154C642.754 125.832 642.053 126.696 641.609 127.794C641.142 128.892 640.909 130.107 640.909 131.438C640.909 132.747 641.142 133.962 641.609 135.06C642.077 136.158 642.778 137.046 643.735 137.7C644.67 138.378 645.838 138.705 647.263 138.705L647.263 138.704ZM658.314 139.685V123.168H660.136L670.089 138.003V123.168H671.421V139.685H669.669L659.646 124.85V139.685H658.314H658.314ZM680.182 139.685L686.56 123.168H688.265L694.69 139.685H693.195L691.746 135.97H683.079L681.654 139.685H680.182H680.182ZM683.523 134.779H691.303L687.424 124.546L683.523 134.779ZM697.143 139.685V123.168H698.965L708.918 138.003V123.168H710.249V139.685H708.498L698.475 124.85V139.685H697.143H697.143ZM714.502 139.685V123.168H720.249C721.954 123.168 723.379 123.518 724.524 124.196C725.668 124.896 726.51 125.855 727.094 127.092C727.678 128.331 727.959 129.779 727.959 131.438C727.959 133.073 727.678 134.499 727.094 135.737C726.51 136.975 725.669 137.933 724.524 138.634C723.379 139.335 721.954 139.685 720.249 139.685H714.502ZM715.833 138.47H720.062C721.534 138.47 722.749 138.167 723.706 137.583C724.664 136.998 725.365 136.158 725.856 135.106C726.346 134.055 726.58 132.817 726.58 131.438C726.58 130.083 726.346 128.868 725.878 127.794C725.412 126.743 724.71 125.902 723.776 125.294C722.842 124.687 721.65 124.383 720.225 124.383H715.833V138.471L715.833 138.47ZM743.377 139.872C742.419 139.872 741.508 139.755 740.644 139.498C739.757 139.241 738.985 138.821 738.331 138.237C737.676 137.653 737.21 136.882 736.929 135.924H738.378C738.681 136.602 739.079 137.162 739.616 137.559C740.153 137.956 740.738 138.26 741.415 138.423C742.069 138.61 742.723 138.704 743.377 138.704C744.101 138.704 744.802 138.587 745.48 138.354C746.157 138.143 746.694 137.793 747.115 137.325C747.536 136.858 747.746 136.251 747.746 135.48C747.746 134.873 747.629 134.382 747.396 134.008C747.138 133.635 746.812 133.33 746.415 133.097C745.994 132.887 745.504 132.7 744.966 132.536C744.569 132.419 744.148 132.303 743.728 132.186C743.307 132.093 742.91 131.999 742.513 131.882C742.116 131.766 741.719 131.649 741.368 131.532C740.878 131.392 740.41 131.228 739.943 131.018C739.453 130.808 739.032 130.55 738.682 130.247C738.308 129.943 738.004 129.546 737.794 129.102C737.561 128.658 737.444 128.098 737.444 127.443C737.444 126.766 737.538 126.182 737.748 125.691C737.958 125.201 738.238 124.78 738.612 124.43C738.986 124.08 739.407 123.799 739.897 123.589C740.388 123.379 740.902 123.239 741.462 123.121C742 123.028 742.56 122.981 743.145 122.981C744.032 122.981 744.874 123.098 745.645 123.355C746.416 123.612 747.069 124.009 747.607 124.569C748.144 125.13 748.495 125.877 748.635 126.836H747.28C747.116 126.158 746.836 125.644 746.416 125.247C745.972 124.851 745.481 124.569 744.897 124.406C744.313 124.243 743.729 124.149 743.121 124.149C742.631 124.149 742.14 124.196 741.65 124.289C741.159 124.406 740.691 124.569 740.271 124.804C739.85 125.037 739.5 125.341 739.243 125.738C738.986 126.135 738.846 126.649 738.846 127.256C738.846 127.863 738.986 128.354 739.243 128.751C739.5 129.149 739.827 129.452 740.248 129.686C740.645 129.92 741.112 130.13 741.626 130.294C742.304 130.504 743.028 130.691 743.752 130.854C744.476 131.018 745.177 131.228 745.831 131.438C746.298 131.579 746.743 131.765 747.139 131.975C747.537 132.209 747.887 132.49 748.19 132.793C748.495 133.097 748.728 133.447 748.891 133.845C749.055 134.241 749.148 134.709 749.148 135.199C749.148 136.064 748.985 136.788 748.681 137.372C748.354 137.956 747.91 138.447 747.373 138.821C746.836 139.194 746.205 139.452 745.528 139.615C744.85 139.802 744.125 139.872 743.378 139.872H743.377ZM759.007 139.872C757.512 139.872 756.297 139.568 755.363 138.938C754.405 138.306 753.727 137.466 753.284 136.368C752.84 135.293 752.606 134.055 752.606 132.653V123.168H753.961V132.583C753.961 133.727 754.124 134.755 754.475 135.666C754.802 136.601 755.339 137.349 756.087 137.886C756.835 138.423 757.816 138.704 759.03 138.704C760.292 138.704 761.297 138.423 762.021 137.862C762.745 137.325 763.282 136.577 763.609 135.643C763.913 134.732 764.077 133.704 764.077 132.582V123.167H765.432V132.652C765.432 134.054 765.221 135.293 764.777 136.367C764.334 137.465 763.656 138.306 762.698 138.937C761.741 139.568 760.526 139.872 759.007 139.872L759.007 139.872ZM769.567 139.685V123.168H775.127C776.318 123.168 777.346 123.355 778.211 123.729C779.052 124.125 779.706 124.71 780.15 125.504C780.594 126.299 780.827 127.303 780.827 128.541C780.827 129.755 780.571 130.76 780.033 131.555C779.495 132.373 778.748 132.98 777.837 133.378C776.903 133.774 775.851 133.985 774.683 133.985H770.899V139.685H769.567V139.685ZM770.899 132.793H774.613C776.062 132.793 777.23 132.443 778.118 131.742C779.005 131.065 779.45 129.967 779.45 128.448C779.45 127.023 779.052 125.972 778.281 125.34C777.51 124.71 776.412 124.383 775.01 124.383H770.899V132.793ZM784.192 139.685V123.168H789.752C790.943 123.168 791.971 123.355 792.836 123.729C793.677 124.125 794.331 124.71 794.775 125.504C795.219 126.299 795.452 127.303 795.452 128.541C795.452 129.755 795.196 130.76 794.658 131.555C794.12 132.373 793.373 132.98 792.462 133.378C791.528 133.774 790.476 133.985 789.308 133.985H785.524V139.685H784.192V139.685ZM785.524 132.793H789.238C790.687 132.793 791.855 132.443 792.743 131.742C793.63 131.065 794.075 129.967 794.075 128.448C794.075 127.023 793.677 125.972 792.906 125.34C792.135 124.71 791.037 124.383 789.635 124.383H785.524V132.793ZM805.638 139.872C803.933 139.872 802.508 139.498 801.363 138.774C800.218 138.05 799.354 137.045 798.77 135.76C798.186 134.499 797.905 133.05 797.905 131.438C797.905 129.826 798.209 128.378 798.793 127.093C799.377 125.808 800.242 124.804 801.386 124.079C802.531 123.355 803.933 122.981 805.638 122.981C807.344 122.981 808.769 123.355 809.914 124.079C811.059 124.827 811.9 125.831 812.484 127.093C813.068 128.378 813.348 129.827 813.348 131.438C813.348 133.05 813.068 134.475 812.484 135.76C811.9 137.045 811.035 138.05 809.89 138.774C808.745 139.498 807.344 139.872 805.638 139.872ZM805.638 138.704C807.064 138.704 808.255 138.377 809.189 137.723C810.124 137.069 810.825 136.181 811.269 135.082C811.713 133.985 811.947 132.77 811.947 131.438C811.947 130.433 811.83 129.499 811.573 128.612C811.315 127.747 810.919 126.976 810.404 126.299C809.89 125.621 809.236 125.107 808.442 124.71C807.647 124.336 806.713 124.149 805.638 124.149C804.213 124.149 803.022 124.476 802.087 125.154C801.129 125.832 800.428 126.696 799.984 127.794C799.517 128.892 799.284 130.107 799.284 131.438C799.284 132.747 799.517 133.962 799.984 135.06C800.452 136.158 801.153 137.046 802.11 137.7C803.045 138.378 804.213 138.705 805.638 138.705L805.638 138.704ZM816.689 139.685V123.168H822.763C823.627 123.168 824.422 123.261 825.146 123.424C825.847 123.611 826.454 123.892 826.968 124.289C827.459 124.686 827.856 125.2 828.137 125.831C828.394 126.485 828.534 127.28 828.534 128.191C828.534 129.055 828.37 129.803 828.066 130.434C827.762 131.065 827.296 131.602 826.712 132.022C826.128 132.443 825.426 132.747 824.609 132.934L828.207 139.685H826.735L823.231 133.167H818.021V139.685H816.689V139.685ZM818.021 131.975H822.109C822.763 131.975 823.394 131.929 824.002 131.812C824.609 131.718 825.147 131.531 825.637 131.251C826.105 130.971 826.478 130.573 826.758 130.06C827.016 129.569 827.156 128.915 827.156 128.12C827.178 127.163 826.992 126.392 826.595 125.855C826.198 125.317 825.637 124.92 824.96 124.71C824.259 124.499 823.441 124.383 822.53 124.383H818.021V131.975L818.021 131.975ZM835.823 139.685V124.383H830.286V123.168H842.691V124.383H837.155V139.685H835.823H835.823Z" fill="#FE830C"/>
<path d="M227.007 168.69C225.302 168.69 223.877 168.317 222.732 167.592C221.587 166.868 220.723 165.864 220.138 164.578C219.555 163.317 219.274 161.869 219.274 160.256C219.274 158.645 219.578 157.196 220.162 155.911C220.746 154.626 221.61 153.622 222.756 152.898C223.9 152.173 225.302 151.799 227.007 151.799C228.713 151.799 230.138 152.173 231.283 152.898C232.428 153.645 233.268 154.649 233.853 155.911C234.436 157.196 234.717 158.645 234.717 160.256C234.717 161.869 234.436 163.293 233.853 164.578C233.268 165.864 232.404 166.868 231.259 167.592C230.115 168.317 228.713 168.69 227.007 168.69ZM227.007 167.522C228.433 167.522 229.624 167.195 230.558 166.541C231.493 165.887 232.194 164.999 232.638 163.901C233.082 162.802 233.316 161.587 233.316 160.256C233.316 159.251 233.199 158.317 232.942 157.43C232.684 156.566 232.287 155.794 231.773 155.117C231.259 154.439 230.605 153.925 229.811 153.528C229.016 153.154 228.082 152.968 227.007 152.968C225.582 152.968 224.391 153.295 223.456 153.972C222.498 154.65 221.797 155.514 221.353 156.612C220.886 157.71 220.653 158.925 220.653 160.257C220.653 161.565 220.886 162.78 221.353 163.878C221.821 164.976 222.522 165.864 223.479 166.518C224.414 167.196 225.582 167.523 227.007 167.523L227.007 167.522ZM238.058 168.503V151.986H248.852V153.2H239.39V160.279H247.543V161.494H239.39V168.503H238.058V168.503ZM263.99 168.69C263.033 168.69 262.121 168.573 261.257 168.316C260.369 168.059 259.598 167.639 258.944 167.054C258.29 166.47 257.823 165.7 257.542 164.742H258.991C259.294 165.42 259.692 165.98 260.229 166.377C260.766 166.774 261.35 167.078 262.028 167.241C262.682 167.428 263.336 167.522 263.99 167.522C264.715 167.522 265.415 167.405 266.093 167.171C266.771 166.961 267.307 166.611 267.728 166.143C268.149 165.676 268.359 165.069 268.359 164.298C268.359 163.69 268.243 163.2 268.009 162.826C267.752 162.453 267.424 162.148 267.028 161.915C266.607 161.704 266.116 161.518 265.579 161.354C265.182 161.237 264.761 161.121 264.341 161.004C263.92 160.91 263.523 160.817 263.126 160.7C262.729 160.583 262.332 160.466 261.981 160.35C261.491 160.21 261.024 160.046 260.556 159.836C260.066 159.625 259.645 159.368 259.295 159.065C258.921 158.761 258.617 158.364 258.407 157.92C258.174 157.476 258.057 156.915 258.057 156.261C258.057 155.583 258.151 155 258.361 154.509C258.571 154.018 258.851 153.598 259.225 153.248C259.6 152.898 260.02 152.617 260.51 152.407C261.001 152.196 261.515 152.056 262.076 151.939C262.613 151.846 263.173 151.799 263.758 151.799C264.645 151.799 265.487 151.915 266.258 152.173C267.028 152.43 267.683 152.827 268.22 153.387C268.757 153.948 269.107 154.695 269.248 155.654H267.893C267.729 154.976 267.449 154.462 267.028 154.065C266.585 153.668 266.094 153.387 265.509 153.224C264.926 153.06 264.341 152.967 263.734 152.967C263.244 152.967 262.753 153.014 262.263 153.107C261.772 153.224 261.304 153.387 260.884 153.621C260.463 153.855 260.113 154.159 259.856 154.556C259.599 154.953 259.459 155.467 259.459 156.074C259.459 156.681 259.6 157.172 259.856 157.569C260.113 157.967 260.44 158.27 260.861 158.504C261.258 158.738 261.725 158.948 262.239 159.111C262.917 159.322 263.641 159.508 264.365 159.672C265.089 159.835 265.79 160.046 266.444 160.256C266.912 160.396 267.356 160.583 267.752 160.793C268.15 161.027 268.5 161.307 268.804 161.611C269.107 161.915 269.341 162.265 269.504 162.662C269.668 163.059 269.762 163.527 269.762 164.017C269.762 164.882 269.598 165.606 269.294 166.19C268.967 166.774 268.523 167.264 267.986 167.639C267.449 168.012 266.818 168.269 266.14 168.433C265.463 168.62 264.739 168.69 263.991 168.69H263.99Z" fill="#FE830C"/>
<path d="M276.931 168.503V153.201H271.395V151.986H283.8V153.201H278.263V168.503H276.931Z" fill="#FE830C"/>
<path d="M283.379 168.503L289.757 151.986H291.462L297.887 168.503H296.392L294.943 164.788H286.276L284.851 168.503H283.379H283.379ZM286.72 163.597H294.499L290.621 153.364L286.72 163.597Z" fill="#FE830C"/>
<path d="M303.002 168.503V153.201H297.466V151.986H309.871V153.201H304.335V168.503H303.003H303.002ZM312.418 168.503V151.986H323.212V153.2H313.75V159.695H322.254V160.91H313.75V167.288H323.212V168.503H312.418V168.503ZM332.86 168.503V151.986H334.192V168.503H332.86ZM338.444 168.503V151.986H340.266L350.219 166.821V151.986H351.551V168.503H349.799L339.776 153.668V168.503H338.444H338.444ZM355.803 168.503V151.986H366.596V153.2H357.134V160.279H365.288V161.494H357.134V168.503H355.803V168.503ZM376.501 168.69C374.796 168.69 373.372 168.316 372.226 167.592C371.082 166.868 370.217 165.863 369.633 164.578C369.049 163.317 368.769 161.868 368.769 160.256C368.769 158.644 369.073 157.195 369.656 155.91C370.241 154.626 371.105 153.621 372.25 152.897C373.394 152.173 374.796 151.799 376.501 151.799C378.207 151.799 379.632 152.173 380.777 152.897C381.922 153.644 382.763 154.649 383.347 155.91C383.931 157.196 384.212 158.645 384.212 160.256C384.212 161.868 383.931 163.293 383.347 164.578C382.763 165.863 381.899 166.868 380.754 167.592C379.609 168.316 378.207 168.69 376.501 168.69ZM376.501 167.522C377.927 167.522 379.118 167.195 380.053 166.541C380.987 165.886 381.688 164.998 382.132 163.9C382.576 162.802 382.81 161.587 382.81 160.256C382.81 159.251 382.693 158.317 382.436 157.429C382.179 156.565 381.782 155.794 381.267 155.116C380.754 154.439 380.099 153.924 379.305 153.528C378.511 153.154 377.577 152.967 376.501 152.967C375.077 152.967 373.885 153.294 372.95 153.972C371.993 154.65 371.291 155.514 370.847 156.612C370.381 157.71 370.147 158.925 370.147 160.256C370.147 161.565 370.381 162.78 370.847 163.878C371.315 164.976 372.016 165.864 372.974 166.518C373.908 167.195 375.076 167.523 376.501 167.523L376.501 167.522ZM387.553 168.503V151.986H393.626C394.491 151.986 395.285 152.079 396.01 152.242C396.71 152.429 397.318 152.71 397.832 153.107C398.323 153.504 398.719 154.018 399 154.649C399.257 155.303 399.397 156.098 399.397 157.009C399.397 157.873 399.234 158.621 398.93 159.251C398.626 159.883 398.159 160.42 397.575 160.84C396.991 161.261 396.29 161.565 395.472 161.752L399.07 168.503H397.598L394.094 161.985H388.884V168.503H387.553V168.503ZM388.884 160.793H392.973C393.627 160.793 394.258 160.746 394.865 160.63C395.473 160.536 396.01 160.349 396.5 160.069C396.968 159.788 397.342 159.391 397.622 158.878C397.879 158.387 398.019 157.733 398.019 156.938C398.042 155.98 397.856 155.21 397.459 154.672C397.061 154.134 396.5 153.738 395.823 153.527C395.123 153.317 394.305 153.2 393.393 153.2H388.885V160.793L388.884 160.793ZM402.855 168.503V151.986H404.818L410.635 162.054L416.359 151.986H418.275V168.503H416.942V153.48L410.938 164.017H410.284L404.187 153.48V168.503H402.855H402.855ZM420.728 168.503L427.106 151.986H428.811L435.236 168.503H433.741L432.292 164.788H423.625L422.2 168.503H420.728H420.728ZM424.069 163.596H431.849L427.97 153.364L424.069 163.596Z" fill="#FE830C"/>
<path d="M440.345 168.503V153.201H434.809V151.986H447.214V153.201H441.677V168.503H440.346H440.345ZM449.761 168.503V151.986H451.093V168.503H449.761ZM462.167 168.69C460.461 168.69 459.036 168.316 457.891 167.592C456.746 166.868 455.882 165.863 455.298 164.578C454.714 163.317 454.434 161.868 454.434 160.256C454.434 158.644 454.737 157.195 455.321 155.91C455.905 154.625 456.77 153.621 457.915 152.897C459.059 152.173 460.461 151.798 462.167 151.798C463.872 151.798 465.297 152.173 466.442 152.897C467.587 153.644 468.428 154.649 469.012 155.91C469.596 157.196 469.876 158.644 469.876 160.256C469.876 161.868 469.596 163.293 469.012 164.578C468.428 165.863 467.564 166.867 466.419 167.592C465.274 168.316 463.872 168.69 462.167 168.69ZM462.167 167.522C463.592 167.522 464.783 167.194 465.718 166.541C466.652 165.886 467.353 164.998 467.797 163.9C468.241 162.802 468.475 161.587 468.475 160.256C468.475 159.251 468.358 158.317 468.101 157.429C467.844 156.565 467.447 155.793 466.932 155.116C466.418 154.439 465.764 153.924 464.97 153.528C464.176 153.154 463.241 152.967 462.167 152.967C460.741 152.967 459.55 153.294 458.615 153.972C457.657 154.649 456.956 155.514 456.513 156.612C456.046 157.71 455.812 158.925 455.812 160.256C455.812 161.565 456.046 162.78 456.513 163.878C456.98 164.975 457.681 165.863 458.638 166.518C459.573 167.195 460.741 167.522 462.166 167.522L462.167 167.522ZM473.217 168.503V151.985H475.04L484.992 166.821V151.985H486.324V168.503H484.572L474.55 153.667V168.503H473.218H473.217ZM502.631 168.689C501.673 168.689 500.762 168.572 499.897 168.316C499.01 168.058 498.239 167.638 497.585 167.054C496.93 166.47 496.463 165.699 496.182 164.741H497.631C497.935 165.419 498.332 165.979 498.869 166.376C499.407 166.774 499.991 167.077 500.668 167.241C501.323 167.428 501.976 167.521 502.631 167.521C503.355 167.521 504.055 167.405 504.733 167.171C505.411 166.961 505.948 166.61 506.368 166.143C506.79 165.675 507 165.068 507 164.297C507 163.69 506.883 163.199 506.649 162.826C506.392 162.452 506.065 162.148 505.668 161.914C505.248 161.704 504.757 161.517 504.22 161.354C503.822 161.237 503.402 161.12 502.981 161.004C502.561 160.91 502.163 160.817 501.767 160.699C501.369 160.583 500.972 160.466 500.622 160.349C500.132 160.209 499.664 160.046 499.197 159.835C498.706 159.625 498.285 159.368 497.935 159.064C497.562 158.761 497.257 158.363 497.048 157.919C496.814 157.476 496.698 156.915 496.698 156.261C496.698 155.583 496.791 155 497.001 154.509C497.212 154.018 497.492 153.597 497.866 153.247C498.24 152.897 498.66 152.616 499.151 152.406C499.641 152.196 500.155 152.056 500.716 151.938C501.253 151.845 501.814 151.798 502.398 151.798C503.286 151.798 504.127 151.915 504.898 152.172C505.669 152.429 506.323 152.826 506.86 153.387C507.398 153.947 507.748 154.695 507.889 155.653H506.533C506.37 154.976 506.09 154.461 505.669 154.065C505.225 153.668 504.734 153.387 504.15 153.224C503.566 153.06 502.982 152.966 502.374 152.966C501.884 152.966 501.393 153.013 500.903 153.107C500.412 153.224 499.945 153.387 499.524 153.621C499.104 153.854 498.753 154.158 498.496 154.555C498.24 154.952 498.099 155.466 498.099 156.074C498.099 156.681 498.24 157.172 498.496 157.569C498.753 157.966 499.08 158.27 499.501 158.503C499.898 158.737 500.365 158.947 500.88 159.111C501.557 159.321 502.281 159.508 503.006 159.672C503.729 159.835 504.431 160.045 505.085 160.255C505.552 160.396 505.996 160.582 506.393 160.792C506.79 161.026 507.14 161.307 507.444 161.61C507.748 161.914 507.982 162.264 508.144 162.662C508.308 163.059 508.402 163.526 508.402 164.016C508.402 164.881 508.239 165.605 507.934 166.189C507.607 166.774 507.164 167.264 506.626 167.638C506.089 168.011 505.458 168.269 504.781 168.433C504.103 168.619 503.379 168.689 502.631 168.689H502.631Z" fill="#FE830C"/>
<path d="M515.664 168.503V162.289L509.8 151.986H511.389L516.341 160.934L521.295 151.986H522.813L516.995 162.265V168.503H515.664Z" fill="#FE830C"/>
<path d="M530.639 168.69C529.681 168.69 528.77 168.573 527.905 168.317C527.018 168.059 526.246 167.639 525.593 167.055C524.938 166.47 524.471 165.7 524.19 164.742H525.639C525.943 165.42 526.34 165.98 526.877 166.377C527.414 166.774 527.999 167.078 528.676 167.241C529.331 167.429 529.984 167.522 530.639 167.522C531.363 167.522 532.063 167.405 532.741 167.171C533.419 166.961 533.956 166.611 534.376 166.143C534.797 165.676 535.008 165.069 535.008 164.298C535.008 163.69 534.891 163.2 534.657 162.826C534.4 162.453 534.073 162.148 533.676 161.915C533.256 161.704 532.765 161.518 532.228 161.354C531.83 161.238 531.41 161.121 530.989 161.004C530.569 160.911 530.171 160.818 529.775 160.7C529.377 160.583 528.98 160.467 528.63 160.35C528.139 160.21 527.672 160.046 527.205 159.836C526.714 159.626 526.293 159.368 525.943 159.065C525.57 158.762 525.265 158.364 525.056 157.92C524.822 157.476 524.706 156.915 524.706 156.261C524.706 155.584 524.799 155 525.009 154.509C525.22 154.019 525.5 153.598 525.874 153.248C526.248 152.898 526.668 152.617 527.159 152.407C527.649 152.197 528.163 152.056 528.724 151.939C529.261 151.846 529.822 151.799 530.406 151.799C531.293 151.799 532.135 151.916 532.906 152.173C533.677 152.43 534.331 152.827 534.868 153.388C535.406 153.948 535.756 154.696 535.896 155.654H534.541C534.377 154.976 534.097 154.462 533.677 154.065C533.233 153.668 532.742 153.388 532.158 153.224C531.574 153.061 530.99 152.967 530.382 152.967C529.892 152.967 529.401 153.014 528.911 153.108C528.42 153.224 527.953 153.388 527.532 153.621C527.112 153.855 526.761 154.159 526.504 154.556C526.247 154.953 526.107 155.467 526.107 156.075C526.107 156.681 526.248 157.172 526.504 157.569C526.761 157.967 527.088 158.271 527.509 158.504C527.906 158.738 528.373 158.948 528.888 159.112C529.566 159.322 530.289 159.508 531.014 159.672C531.738 159.836 532.439 160.046 533.092 160.256C533.56 160.396 534.004 160.583 534.401 160.793C534.798 161.027 535.148 161.308 535.452 161.611C535.756 161.915 535.989 162.265 536.152 162.663C536.317 163.059 536.41 163.527 536.41 164.017C536.41 164.882 536.247 165.606 535.942 166.19C535.615 166.774 535.171 167.265 534.634 167.639C534.097 168.012 533.466 168.269 532.789 168.433C532.111 168.62 531.387 168.69 530.639 168.69H530.639Z" fill="#FE830C"/>
<path d="M543.58 168.503V153.201H538.044V151.986H550.449V153.201H544.913V168.503H543.581H543.58ZM552.996 168.503V151.986H563.79V153.2H554.328V159.695H562.832V160.91H554.328V167.288H563.79V168.503H552.996V168.503ZM567.131 168.503V151.986H569.093L574.911 162.055L580.634 151.986H582.55V168.503H581.218V153.481L575.214 164.017H574.56L568.462 153.481V168.503H567.13H567.131ZM592.549 168.69C591.591 168.69 590.68 168.573 589.816 168.316C588.928 168.059 588.157 167.639 587.503 167.054C586.848 166.47 586.382 165.7 586.101 164.742H587.55C587.853 165.42 588.251 165.98 588.788 166.377C589.325 166.774 589.909 167.078 590.587 167.241C591.241 167.428 591.895 167.522 592.549 167.522C593.273 167.522 593.974 167.405 594.652 167.171C595.329 166.961 595.866 166.611 596.286 166.143C596.708 165.676 596.918 165.069 596.918 164.298C596.918 163.69 596.801 163.2 596.568 162.826C596.31 162.453 595.983 162.148 595.586 161.915C595.166 161.704 594.675 161.518 594.138 161.354C593.741 161.237 593.32 161.121 592.899 161.004C592.479 160.91 592.082 160.817 591.685 160.7C591.287 160.583 590.89 160.466 590.54 160.35C590.05 160.21 589.582 160.046 589.115 159.836C588.624 159.625 588.204 159.368 587.854 159.065C587.48 158.761 587.176 158.364 586.966 157.92C586.732 157.476 586.616 156.915 586.616 156.261C586.616 155.583 586.71 155 586.92 154.509C587.13 154.018 587.41 153.598 587.784 153.248C588.158 152.898 588.579 152.617 589.069 152.407C589.56 152.196 590.074 152.056 590.634 151.939C591.171 151.846 591.732 151.799 592.316 151.799C593.204 151.799 594.046 151.915 594.816 152.173C595.587 152.43 596.241 152.827 596.778 153.387C597.316 153.948 597.666 154.695 597.807 155.654H596.452C596.288 154.976 596.008 154.462 595.587 154.065C595.144 153.668 594.653 153.387 594.068 153.224C593.485 153.06 592.9 152.967 592.293 152.967C591.802 152.967 591.311 153.014 590.821 153.107C590.331 153.224 589.863 153.387 589.443 153.621C589.022 153.855 588.672 154.159 588.414 154.556C588.158 154.953 588.018 155.467 588.018 156.074C588.018 156.681 588.158 157.172 588.414 157.569C588.672 157.967 588.999 158.27 589.419 158.504C589.817 158.738 590.283 158.948 590.798 159.111C591.476 159.322 592.2 159.508 592.924 159.672C593.648 159.835 594.349 160.046 595.003 160.256C595.47 160.396 595.914 160.583 596.311 160.793C596.708 161.027 597.058 161.307 597.362 161.611C597.666 161.915 597.9 162.265 598.063 162.662C598.227 163.059 598.32 163.527 598.32 164.017C598.32 164.882 598.157 165.606 597.853 166.19C597.526 166.774 597.082 167.264 596.545 167.639C596.007 168.012 595.377 168.269 594.699 168.433C594.021 168.62 593.297 168.69 592.55 168.69H592.549Z" fill="#FE830C"/>
<path d="M289.901 74.3423C289.901 84.1296 286.806 91.6199 280.713 96.7135C274.621 101.907 265.833 104.503 254.547 104.503C243.162 104.503 234.373 101.907 228.281 96.7135C222.089 91.6199 218.993 84.1296 218.993 74.3423V33.5948H235.272V75.6404C235.272 79.4358 235.971 82.3322 237.269 84.3299C238.568 86.4268 240.665 87.8252 243.362 88.524C246.058 89.3235 249.853 89.7225 254.547 89.7225C259.241 89.7225 263.036 89.3235 265.732 88.524C268.429 87.7248 270.527 86.3264 271.825 84.2296C273.123 82.2323 273.722 79.3355 273.722 75.6404V33.5948H289.901V74.3423H289.901ZM300.188 88.0251L339.738 47.8765H301.287V33.5948H361.609V49.5744L321.861 89.2236H362.608V103.505H300.188V88.0251ZM373.794 33.5948H390.472V103.505H373.794V33.5948ZM406.152 33.5948H427.824L455.688 72.4449L462.28 81.8329H462.679L462.579 72.6448V33.5948H478.759V103.505H457.985L429.322 63.1565L422.631 53.569H422.231L422.332 63.1565V103.505H406.152V33.5948ZM510.617 48.4754V62.6575H543.875V77.0388H510.617V103.505H494.339V33.5948H547.17V48.4754H510.617ZM596.108 104.503C588.218 104.503 581.127 103.005 575.035 100.11C568.943 97.2132 564.149 93.1182 560.753 87.7252C557.258 82.3326 555.56 76.0401 555.56 68.7497C555.56 61.459 557.258 55.067 560.753 49.5744C564.149 44.081 568.943 39.8866 575.135 36.9909C581.227 34.0945 588.218 32.5966 596.108 32.5966C603.998 32.5966 611.088 34.0949 617.181 36.9909C623.273 39.8869 627.966 44.0814 631.362 49.5744C634.758 55.0673 636.456 61.459 636.456 68.7497C636.456 76.0401 634.758 82.3326 631.362 87.7252C627.867 93.1182 623.173 97.2132 617.08 100.11C610.989 103.006 603.998 104.503 596.108 104.503ZM596.108 89.7225C604.297 89.7225 610.289 88.0247 614.085 84.629C617.78 81.3332 619.677 75.9406 619.677 68.5502C619.677 63.1569 618.878 58.962 617.181 55.8665C615.483 52.7706 612.986 50.5734 609.59 49.2749C606.195 47.9768 601.7 47.3768 596.108 47.3768C590.515 47.3768 586.021 47.9765 582.625 49.2749C579.13 50.573 576.633 52.7706 574.935 55.8665C573.237 58.962 572.439 63.1569 572.439 68.5502C572.439 74.0436 573.238 78.3372 574.935 81.4335C576.633 84.5298 579.129 86.6266 582.526 87.8256C585.921 89.1236 590.416 89.7229 596.108 89.7229L596.108 89.7225ZM683.895 104.503C675.905 104.503 668.814 103.005 662.722 100.11C656.53 97.2132 651.736 93.1182 648.34 87.7252C644.845 82.3326 643.147 76.0401 643.147 68.7497C643.147 61.3591 644.745 54.9678 648.041 49.4744C651.336 44.081 656.03 39.8866 662.122 36.9906C668.214 34.0942 675.505 32.5962 683.894 32.5962C694.381 32.5962 702.77 35.0924 709.162 39.9865C715.454 44.9801 719.349 52.3701 720.847 62.0579L704.568 65.1542L704.368 65.0546C703.569 60.2597 702.571 56.6652 701.272 54.1679C699.974 51.6716 698.076 49.973 695.479 48.8748C692.783 47.8761 688.988 47.3764 683.894 47.3764C677.802 47.3764 673.108 47.9761 669.713 49.2746C666.218 50.5726 663.821 52.7702 662.322 55.8661C660.824 58.9616 660.025 63.1565 660.025 68.5499C660.025 74.0432 660.825 78.2369 662.322 81.3328C663.821 84.4291 666.317 86.5267 669.812 87.8248C673.209 89.1229 677.902 89.7222 683.895 89.7222C688.988 89.7222 692.783 89.1233 695.48 88.0243C698.177 86.9261 700.074 85.2275 701.373 82.7312C702.671 80.2346 703.67 76.6394 704.368 71.9452L704.568 71.8453L720.847 74.9408C719.349 84.7285 715.454 92.1192 709.163 97.0129C702.771 102.007 694.381 104.503 683.895 104.503V104.503ZM769.585 104.503C761.695 104.503 754.604 103.005 748.512 100.11C742.419 97.2132 737.626 93.1182 734.23 87.7252C730.734 82.3326 729.037 76.0401 729.037 68.7497C729.037 61.459 730.734 55.067 734.23 49.5744C737.626 44.081 742.419 39.8866 748.612 36.9909C754.704 34.0945 761.695 32.5966 769.585 32.5966C777.474 32.5966 784.565 34.0949 790.658 36.9909C796.75 39.8869 801.443 44.0814 804.839 49.5744C808.234 55.0673 809.933 61.459 809.933 68.7497C809.933 76.0401 808.234 82.3326 804.839 87.7252C801.344 93.1182 796.649 97.2132 790.557 100.11C784.465 103.006 777.474 104.503 769.585 104.503ZM769.585 89.7225C777.774 89.7225 783.766 88.0247 787.562 84.629C791.257 81.3332 793.154 75.9406 793.154 68.5502C793.154 63.1569 792.355 58.962 790.658 55.8665C788.959 52.7706 786.463 50.5734 783.067 49.2749C779.671 47.9768 775.177 47.3768 769.585 47.3768C763.991 47.3768 759.497 47.9765 756.102 49.2749C752.607 50.573 750.11 52.7706 748.412 55.8665C746.714 58.962 745.915 63.1569 745.915 68.5502C745.915 74.0436 746.714 78.3372 748.412 81.4335C750.11 84.5298 752.607 86.6266 756.003 87.8256C759.398 89.1236 763.892 89.7229 769.585 89.7229L769.585 89.7225ZM821.118 33.5948H848.683L863.064 74.5421L867.458 88.8238L871.853 74.5421L886.134 33.5948H913.599V103.505H898.019V62.7571L898.219 48.6749H897.82L892.726 62.7571L877.546 103.505H857.372L842.092 62.7571L837.097 48.6749H836.698L836.799 62.7571V103.505H821.118V33.5948H821.118Z" fill="#FE830C"/>
<path fill-rule="evenodd" clip-rule="evenodd" d="M183.477 3.04884e-05H24.1003C10.8448 3.04884e-05 0 10.8444 0 24.1004V29.4579C4.35965 30.1243 9.2007 31.411 14.4453 33.2709C30.9597 39.1301 51.5212 50.7099 73.5983 66.6975C91.5408 53.3305 108.051 43.7674 121.444 39.0206C134.526 34.3833 144.68 34.3295 150.36 39.7839C156.794 45.9589 156.535 58.3066 150.797 74.4788C144.935 90.9939 133.356 111.555 117.37 133.632C130.738 151.575 140.298 168.087 145.045 181.48C145.286 182.154 145.511 182.818 145.725 183.476H159.377C172.632 183.476 183.477 172.634 183.477 159.378V-0.000732422L183.477 3.04884e-05ZM0 101.189V159.376C0 168.393 5.01728 176.29 12.3973 180.42C18.0218 180.586 24.8281 179.206 32.5683 176.422C48.3471 170.754 67.9784 159.273 89.4463 143.198C89.6156 143.069 89.8609 143.105 89.9921 143.275C90.1104 143.434 90.0894 143.658 89.949 143.793C83.9014 149.56 77.876 155.016 71.9314 160.131C65.8788 165.336 59.906 170.191 54.0732 174.655L54.0705 174.658L50.6656 177.231L50.6641 177.232L50.6599 177.235L50.6572 177.237C47.73 179.421 44.8397 181.502 41.9898 183.475H116.387C121.896 177.132 121.584 165.949 116.392 151.497C110.722 135.719 99.2405 116.088 83.1656 94.6184C83.0359 94.4483 83.071 94.2008 83.2423 94.0718C83.4017 93.9536 83.6256 93.9749 83.7592 94.1149H83.7611C89.5271 100.163 94.9865 106.19 100.101 112.134C105.16 118.017 109.887 123.825 114.25 129.503C121.803 114.774 126.675 101.709 128.415 91.1598C130.095 80.9624 128.849 73.1334 124.268 68.4529C118.097 62.1513 106.564 62.2478 91.463 67.6747C75.6841 73.3443 56.0556 84.8231 34.5862 100.899C34.4156 101.028 34.1715 100.994 34.0391 100.821C33.9217 100.663 33.943 100.438 34.0842 100.305H34.083C40.1287 94.5414 46.1515 89.0843 52.0938 83.9739C57.9766 78.9109 63.7907 74.1831 69.4702 69.8193C54.7411 62.2657 41.6766 57.3915 31.1279 55.6517C20.9285 53.9694 13.1007 55.2153 8.42024 59.7981C2.11631 65.9693 2.21587 77.5026 7.64207 92.6009C13.3097 108.38 24.7911 128.011 40.8664 149.476C40.9965 149.648 40.9587 149.894 40.7867 150.023C40.6299 150.143 40.4056 150.122 40.2706 149.979V149.982C34.5064 143.936 29.052 137.913 23.9397 131.971C18.7325 125.916 13.8754 119.941 9.4105 114.105L9.40821 114.104L6.83453 110.699L6.83148 110.697L6.83034 110.692L6.8269 110.69C4.42679 107.474 2.15141 104.304 0.00076291 101.189L0 101.189Z" fill="#4C51C6"/>
</svg>
