<svg xmlns="http://www.w3.org/2000/svg" width="164" height="24" fill="none"><path fill="#fff" d="M36.023 9.566h6.866L36 16.937v2.876h10.223V17.23h-6.96l7.033-7.567V6.98H36.023v2.586Zm14.275 2.706a3.836 3.836 0 0 1 2.019-2.634 3.92 3.92 0 0 1 1.8-.41c.662 0 1.254.136 1.777.41.523.275.958.645 1.305 1.112.346.468.577.976.69 1.522h-7.59Zm9.1-2.815a6.57 6.57 0 0 0-2.283-1.97 6.274 6.274 0 0 0-2.974-.724 6.428 6.428 0 0 0-3.298.881 6.524 6.524 0 0 0-2.393 2.405 6.533 6.533 0 0 0-.883 3.335 6.52 6.52 0 0 0 .871 3.288 6.498 6.498 0 0 0 2.38 2.417 6.399 6.399 0 0 0 3.323.894c1.241 0 2.425-.31 3.554-.93 1.127-.62 1.94-1.446 2.44-2.477l-2.44-.63a4.46 4.46 0 0 1-1.583 1.15 4.839 4.839 0 0 1-1.97.422 4.17 4.17 0 0 1-1.777-.375 3.595 3.595 0 0 1-1.354-1.075 3.735 3.735 0 0 1-.713-1.668h10.298a5.101 5.101 0 0 0-.025-2.151 6.577 6.577 0 0 0-1.172-2.792ZM71.904 7.39a5.774 5.774 0 0 0-2.659-.627c-.87 0-1.643.176-2.32.531a5 5 0 0 0-1.667 1.378v-5.8h-2.78V19.79h2.78v-6.574c0-.742.144-1.403.434-1.983.29-.58.701-1.04 1.232-1.377a3.266 3.266 0 0 1 1.79-.508c.58 0 1.106.138 1.582.412.476.274.855.66 1.137 1.16.281.5.422 1.087.422 1.764v7.106h2.755v-7.856c0-1.03-.245-1.94-.736-2.731a4.928 4.928 0 0 0-1.97-1.813Zm14.436 0a5.718 5.718 0 0 0-2.633-.627c-.871 0-1.648.176-2.333.531a4.981 4.981 0 0 0-1.68 1.378V6.98H76.94v12.81h2.755v-6.574c0-.742.145-1.403.436-1.983.289-.58.7-1.04 1.232-1.377a3.26 3.26 0 0 1 1.788-.508 3.037 3.037 0 0 1 2.72 1.572c.282.5.423 1.087.423 1.764v7.106h2.779v-7.856c0-1.03-.25-1.94-.749-2.731a5.01 5.01 0 0 0-1.982-1.813Zm22.062-.023a4.877 4.877 0 0 0-2.382-.604 4.91 4.91 0 0 0-2.44.652 5.137 5.137 0 0 0-1.862 1.764c-.434-.773-1.007-1.369-1.715-1.789a4.487 4.487 0 0 0-2.321-.627c-.757 0-1.435.173-2.03.52a5.172 5.172 0 0 0-1.522 1.34V6.98h-2.78v12.81h2.78v-6.865c0-.66.108-1.265.327-1.812a2.938 2.938 0 0 1 1.002-1.318c.45-.33 1.016-.494 1.692-.494.805 0 1.434.289 1.885.87.45.58.676 1.393.676 2.441v7.178h2.78v-7.252a4.3 4.3 0 0 1 .399-1.631 2.845 2.845 0 0 1 1.004-1.172c.433-.29.966-.434 1.594-.434.822 0 1.458.289 1.91.87.451.58.676 1.393.676 2.441v7.178h2.755v-7.856c0-1.063-.22-1.99-.664-2.78-.443-.788-1.031-1.384-1.764-1.787Zm4.756 12.423h2.78V6.98h-2.78v12.81ZM114.584 2c-.499 0-.927.17-1.28.508a1.64 1.64 0 0 0-.533 1.233c0 .5.178.915.533 1.244.353.332.781.496 1.28.496.5 0 .923-.164 1.27-.496.346-.33.519-.745.519-1.244a1.66 1.66 0 0 0-.519-1.233 1.752 1.752 0 0 0-1.27-.508Zm13.273 5.39a5.72 5.72 0 0 0-2.634-.627c-.871 0-1.648.176-2.333.531a4.995 4.995 0 0 0-1.68 1.378V6.98h-2.754v12.81h2.754v-6.574c0-.742.145-1.403.436-1.983.289-.58.701-1.04 1.233-1.377a3.256 3.256 0 0 1 1.787-.508c.581 0 1.109.138 1.584.412.475.274.853.66 1.136 1.16.282.5.423 1.087.423 1.764v7.106h2.779v-7.856c0-1.03-.249-1.94-.749-2.731a5.004 5.004 0 0 0-1.982-1.813Zm14.535 8.025a4.22 4.22 0 0 1-1.487 1.499c-.62.37-1.293.555-2.018.555a3.902 3.902 0 0 1-2.055-.555 4.074 4.074 0 0 1-1.449-1.487 4.043 4.043 0 0 1-.532-2.043c0-.74.177-1.425.532-2.053a4 4 0 0 1 1.463-1.5c.619-.37 1.3-.555 2.041-.555.725 0 1.398.19 2.018.568a4.31 4.31 0 0 1 1.487 1.51c.37.629.555 1.305.555 2.03 0 .726-.185 1.403-.555 2.031Zm.362-6.72a4.998 4.998 0 0 0-1.764-1.412c-.708-.347-1.49-.52-2.345-.52-1.16 0-2.226.294-3.202.881a6.47 6.47 0 0 0-2.321 2.405 6.691 6.691 0 0 0-.857 3.335 6.57 6.57 0 0 0 .857 3.3 6.572 6.572 0 0 0 2.321 2.404 6.017 6.017 0 0 0 3.202.895c.855 0 1.637-.17 2.345-.508a4.984 4.984 0 0 0 1.764-1.377v1.692h2.78V2.87h-2.78v5.824Zm6.562 9.06c-.321 0-.586.106-.798.32a1.07 1.07 0 0 0-.316.777c0 .315.106.577.316.785.212.209.477.313.798.313.315 0 .579-.105.793-.316.214-.211.321-.472.321-.782 0-.304-.109-.563-.325-.777a1.08 1.08 0 0 0-.789-.32Zm8.25-.152c-.485.486-1.095.729-1.83.729-.734 0-1.344-.243-1.831-.73-.485-.507-.729-1.128-.729-1.862 0-.745.244-1.36.729-1.847.487-.497 1.097-.745 1.831-.745.735 0 1.345.248 1.83.745.487.486.73 1.102.73 1.847 0 .745-.243 1.366-.73 1.863Zm.73-4.763c-.66-.907-1.604-1.36-2.835-1.36-1.113 0-2.063.41-2.852 1.23-.788.822-1.182 1.83-1.182 3.03 0 1.199.394 2.209 1.182 3.03.789.82 1.739 1.23 2.852 1.23 1.231 0 2.175-.459 2.835-1.376v1.166h1.749v-8.1h-1.749v1.15Zm3.492 6.95h1.749v-8.1h-1.749v8.1Zm.875-9.315c.303 0 .562-.108.778-.324.227-.227.34-.491.34-.794 0-.302-.108-.562-.324-.778a1.054 1.054 0 0 0-.794-.34 1.05 1.05 0 0 0-.793.34 1.063 1.063 0 0 0-.325.778 1.113 1.113 0 0 0 1.118 1.118Z"/><g clip-path="url(#a)"><path fill="url(#b)" d="M-191.764-94.438H218.93v231.015h-410.694V-94.438Z"/></g><g clip-path="url(#c)"><path fill="url(#d)" d="M-191.764-94.438H218.93v231.015h-410.694V-94.438Z"/></g><g clip-path="url(#e)"><path fill="url(#f)" d="M-191.764-94.438H218.93v231.015h-410.694V-94.438Z"/></g><g clip-path="url(#g)"><path fill="url(#h)" d="M-191.764-94.438H218.93v231.015h-410.694V-94.438Z"/></g><mask id="i" width="6" height="6" x="9" y="9" maskUnits="userSpaceOnUse" style="mask-type:luminance"><path fill="#fff" d="M9.583 9.604v4.792H12A2.392 2.392 0 0 0 14.396 12 2.392 2.392 0 0 0 12 9.604H9.583Z"/></mask><g mask="url(#i)"><path fill="url(#j)" d="M-191.764-94.438H218.93v231.015h-410.694V-94.438Z"/></g><g clip-path="url(#k)"><path fill="url(#l)" d="M-191.764-94.438H218.93v231.015h-410.694V-94.438Z"/></g><mask id="m" width="6" height="5" x="19" y="0" maskUnits="userSpaceOnUse" style="mask-type:luminance"><path fill="#fff" d="M19.188 2.396a2.392 2.392 0 0 0 2.395 2.395C22.91 4.791 24 3.721 24 2.396 24 1.07 22.91 0 21.583 0a2.392 2.392 0 0 0-2.395 2.396Z"/></mask><g mask="url(#m)"><path fill="url(#n)" d="M-191.764-94.438H218.93v231.015h-410.694V-94.438Z"/></g><mask id="o" width="6" height="6" x="14" y="4" maskUnits="userSpaceOnUse" style="mask-type:luminance"><path fill="#fff" d="M14.396 7.187c0 1.326 1.069 2.417 2.395 2.417s2.396-1.09 2.396-2.417a2.392 2.392 0 0 0-2.396-2.396 2.392 2.392 0 0 0-2.396 2.396Z"/></mask><g mask="url(#o)"><path fill="url(#p)" d="M-191.765-94.438H218.93v231.015h-410.695V-94.438Z"/></g><mask id="q" width="6" height="6" x="19" y="9" maskUnits="userSpaceOnUse" style="mask-type:luminance"><path fill="#fff" d="M19.188 12a2.392 2.392 0 0 0 2.395 2.396C22.91 14.396 24 13.326 24 12c0-1.326-1.09-2.396-2.417-2.396A2.392 2.392 0 0 0 19.188 12Z"/></mask><g mask="url(#q)"><path fill="url(#r)" d="M-191.764-94.438H218.93v231.015h-410.694V-94.438Z"/></g><mask id="s" width="6" height="6" x="14" y="14" maskUnits="userSpaceOnUse" style="mask-type:luminance"><path fill="#fff" d="M14.396 16.791a2.392 2.392 0 0 0 2.395 2.396 2.392 2.392 0 0 0 2.396-2.396 2.392 2.392 0 0 0-2.396-2.395 2.392 2.392 0 0 0-2.396 2.395Z"/></mask><g mask="url(#s)"><path fill="url(#t)" d="M-191.765-94.438H218.93v231.015h-410.695V-94.438Z"/></g><mask id="u" width="6" height="5" x="19" y="19" maskUnits="userSpaceOnUse" style="mask-type:luminance"><path fill="#fff" d="M19.188 21.604A2.392 2.392 0 0 0 21.582 24C22.91 24 24 22.93 24 21.604a2.428 2.428 0 0 0-2.417-2.417c-1.326 0-2.395 1.091-2.395 2.417Z"/></mask><g mask="url(#u)"><path fill="url(#v)" d="M-191.764-94.438H218.93v231.015h-410.694V-94.438Z"/></g><defs><linearGradient id="b" x1=".174" x2="23.687" y1="2.395" y2="2.395" gradientUnits="userSpaceOnUse"><stop stop-color="#51E3E4"/><stop offset=".556" stop-color="#F9FD7D"/><stop offset="1" stop-color="#FFA2D1"/></linearGradient><linearGradient id="d" x1=".174" x2="23.687" y1="7.195" y2="7.195" gradientUnits="userSpaceOnUse"><stop stop-color="#51E3E4"/><stop offset=".556" stop-color="#F9FD7D"/><stop offset="1" stop-color="#FFA2D1"/></linearGradient><linearGradient id="f" x1=".174" x2="23.687" y1="11.995" y2="11.995" gradientUnits="userSpaceOnUse"><stop stop-color="#51E3E4"/><stop offset=".556" stop-color="#F9FD7D"/><stop offset="1" stop-color="#FFA2D1"/></linearGradient><linearGradient id="h" x1=".174" x2="23.687" y1="16.796" y2="16.796" gradientUnits="userSpaceOnUse"><stop stop-color="#51E3E4"/><stop offset=".556" stop-color="#F9FD7D"/><stop offset="1" stop-color="#FFA2D1"/></linearGradient><linearGradient id="j" x1=".174" x2="23.687" y1="11.995" y2="11.995" gradientUnits="userSpaceOnUse"><stop stop-color="#51E3E4"/><stop offset=".556" stop-color="#F9FD7D"/><stop offset="1" stop-color="#FFA2D1"/></linearGradient><linearGradient id="l" x1=".174" x2="23.687" y1="21.596" y2="21.596" gradientUnits="userSpaceOnUse"><stop stop-color="#51E3E4"/><stop offset=".556" stop-color="#F9FD7D"/><stop offset="1" stop-color="#FFA2D1"/></linearGradient><linearGradient id="n" x1=".174" x2="23.687" y1="2.395" y2="2.395" gradientUnits="userSpaceOnUse"><stop stop-color="#51E3E4"/><stop offset=".556" stop-color="#F9FD7D"/><stop offset="1" stop-color="#FFA2D1"/></linearGradient><linearGradient id="p" x1=".173" x2="23.686" y1="7.195" y2="7.195" gradientUnits="userSpaceOnUse"><stop stop-color="#51E3E4"/><stop offset=".556" stop-color="#F9FD7D"/><stop offset="1" stop-color="#FFA2D1"/></linearGradient><linearGradient id="r" x1=".174" x2="23.687" y1="11.995" y2="11.995" gradientUnits="userSpaceOnUse"><stop stop-color="#51E3E4"/><stop offset=".556" stop-color="#F9FD7D"/><stop offset="1" stop-color="#FFA2D1"/></linearGradient><linearGradient id="t" x1=".173" x2="23.686" y1="16.796" y2="16.796" gradientUnits="userSpaceOnUse"><stop stop-color="#51E3E4"/><stop offset=".556" stop-color="#F9FD7D"/><stop offset="1" stop-color="#FFA2D1"/></linearGradient><linearGradient id="v" x1=".174" x2="23.687" y1="21.596" y2="21.596" gradientUnits="userSpaceOnUse"><stop stop-color="#51E3E4"/><stop offset=".556" stop-color="#F9FD7D"/><stop offset="1" stop-color="#FFA2D1"/></linearGradient><clipPath id="a"><path fill="#fff" d="M0 0h4.791v4.791H0z"/></clipPath><clipPath id="c"><path fill="#fff" d="M4.792 4.791h4.79v4.813h-4.79z"/></clipPath><clipPath id="e"><path fill="#fff" d="M0 9.604h4.791v4.791H0z"/></clipPath><clipPath id="g"><path fill="#fff" d="M4.792 14.396h4.79v4.79h-4.79z"/></clipPath><clipPath id="k"><path fill="#fff" d="M0 19.187h4.791V24H0z"/></clipPath></defs></svg>